<svg width="38" height="24" viewBox="0 0 38 24" fill="none" xmlns="http://www.w3.org/2000/svg">
<g clip-path="url(#clip0_55_4873)">
<path d="M35 0H3C1.3 0 0 1.3 0 3V21C0 22.7 1.4 24 3 24H35C36.7 24 38 22.7 38 21V3C38 1.3 36.6 0 35 0Z" fill="#B2FCE4"/>
<path d="M27.3996 6.80001L24.6996 5.20001L21.9996 3.60001C20.1996 2.60001 17.8996 3.90001 17.8996 6.00001V6.40001C17.8996 6.60001 17.9996 6.80001 18.1996 6.90001L19.4996 7.60001C19.8996 7.80001 20.2996 7.50001 20.2996 7.10001V6.30001C20.2996 5.90001 20.6996 5.60001 21.0996 5.80001L23.5996 7.20001L25.9996 8.70001C26.3996 8.90001 26.3996 9.40001 25.9996 9.60001L23.4996 11L20.9996 12.6C20.5996 12.8 20.1996 12.5 20.1996 12.1V11.7C20.1996 9.60001 17.8996 8.30001 16.0996 9.30001L13.3996 10.9L10.6996 12.5C8.89961 13.5 8.89961 16.2 10.6996 17.2L13.3996 18.8L16.0996 20.4C17.8996 21.4 20.1996 20.1 20.1996 18V17.6C20.1996 17.4 20.0996 17.2 19.8996 17.1L18.5996 16.4C18.1996 16.2 17.7996 16.5 17.7996 16.9V17.7C17.7996 18.1 17.3996 18.4 16.9996 18.2L14.4996 16.8L11.9996 15.3C11.5996 15.1 11.5996 14.6 11.9996 14.4L14.4996 13L16.9996 11.6C17.3996 11.4 17.7996 11.7 17.7996 12.1V12.5C17.7996 14.6 20.0996 15.9 21.8996 14.9L24.5996 13.3L27.2996 11.7C29.1996 10.5 29.1996 7.90001 27.3996 6.80001Z" fill="black"/>
</g>
<defs>
<clipPath id="clip0_55_4873">
<rect width="38" height="24" fill="white"/>
</clipPath>
</defs>
</svg>
