<svg width="169" height="169" viewBox="0 0 169 169" fill="none" xmlns="http://www.w3.org/2000/svg">
<path d="M72.9956 10.592C79.1828 4.66897 88.9371 4.66898 95.1243 10.5921L99.3177 14.6065C102.84 17.9786 107.708 19.5602 112.54 18.9026L118.292 18.1197C126.779 16.9646 134.67 22.698 136.195 31.1266L137.227 36.8392C138.095 41.6377 141.104 45.7786 145.399 48.0866L150.513 50.8343C158.058 54.8883 161.072 64.1652 157.351 71.8799L154.829 77.1087C152.71 81.5007 152.71 86.6192 154.829 91.0112L157.351 96.24C161.072 103.955 158.058 113.232 150.513 117.286L145.399 120.033C141.104 122.341 138.095 126.482 137.227 131.281L136.195 136.993C134.67 145.422 126.779 151.155 118.292 150L112.54 149.217C107.708 148.56 102.84 150.141 99.3177 153.513L95.1243 157.528C88.9371 163.451 79.1828 163.451 72.9956 157.528L68.8022 153.513C65.2797 150.141 60.4118 148.56 55.58 149.217L49.8278 150C41.3408 151.155 33.4494 145.422 31.9254 136.993L30.8924 131.281C30.0248 126.482 27.0162 122.341 22.7207 120.033L17.6069 117.286C10.0618 113.232 7.04752 103.955 10.7688 96.24L13.2909 91.0112C15.4094 86.6192 15.4094 81.5007 13.2909 77.1087L10.7688 71.8799C7.04752 64.1652 10.0618 54.8883 17.6069 50.8343L22.7207 48.0866C27.0162 45.7786 30.0248 41.6377 30.8924 36.8392L31.9254 31.1266C33.4494 22.698 41.3408 16.9646 49.8278 18.1197L55.58 18.9026C60.4118 19.5602 65.2797 17.9786 68.8022 14.6065L72.9956 10.592Z" fill="#65B5AF"/>
<path d="M73.34 22.8844C79.3338 17.1464 88.7833 17.1464 94.7772 22.8844L96.0137 24.0681C99.6462 27.5456 104.666 29.1767 109.649 28.4985L111.345 28.2677C119.567 27.1486 127.212 32.7029 128.688 40.8681L128.993 42.5526C129.888 47.5011 132.99 51.7714 137.42 54.1515L138.928 54.9618C146.237 58.8891 149.157 67.8761 145.552 75.3497L144.809 76.8915C142.624 81.4209 142.624 86.6993 144.809 91.2286L145.552 92.7704C149.157 100.244 146.237 109.231 138.928 113.158L137.42 113.969C132.99 116.349 129.888 120.619 128.993 125.567L128.688 127.252C127.212 135.417 119.567 140.971 111.345 139.852L109.649 139.622C104.666 138.943 99.6462 140.575 96.0137 144.052L94.7772 145.236C88.7833 150.974 79.3338 150.974 73.34 145.236L72.1035 144.052C68.4709 140.575 63.4509 138.943 58.4681 139.622L56.7719 139.852C48.5501 140.971 40.9053 135.417 39.4289 127.252L39.1243 125.567C38.2296 120.619 35.127 116.349 30.6972 113.969L29.1893 113.158C21.88 109.231 18.9599 100.244 22.5648 92.7704L23.3086 91.2286C25.4933 86.6993 25.4933 81.4209 23.3086 76.8915L22.5648 75.3497C18.9599 67.8761 21.88 58.8891 29.1893 54.9618L30.6972 54.1515C35.127 51.7714 38.2296 47.5011 39.1243 42.5526L39.4289 40.8681C40.9053 32.7029 48.5501 27.1486 56.7719 28.2677L58.4681 28.4985C63.4509 29.1767 68.471 27.5456 72.1035 24.0681L73.34 22.8844Z" stroke="white"/>
<path d="M110.569 63.1035C110.465 62.6465 110.051 62.3358 109.604 62.3624C94.1311 63.326 81.0963 73.964 74.4061 90.9568C70.9451 85.2954 65.5851 84.3085 62.5211 84.255C60.2434 84.2153 58.6252 84.6474 58.5572 84.666C58.1954 84.7646 57.9254 85.0754 57.8703 85.4566C57.8153 85.8377 57.9868 86.2156 58.3051 86.4171C65.6339 91.0546 70.0563 98.7028 72.4754 104.301C72.9326 105.36 73.8791 106.029 74.9453 106.047C76.1726 106.069 77.2328 105.263 77.6468 103.994C87.2942 74.4003 109.796 64.3092 110.023 64.2109C110.442 64.0286 110.673 63.5611 110.57 63.1045L110.569 63.1035Z" fill="white"/>
</svg>
