<svg width="27" height="26" viewBox="0 0 27 26" fill="none" xmlns="http://www.w3.org/2000/svg">
<path fill-rule="evenodd" clip-rule="evenodd" d="M5.10274 12.0724H5.59164C6.08333 12.0724 6.55553 12.2681 6.90342 12.616C7.25131 12.9639 7.44705 13.4361 7.44705 13.9278V20.0719C7.44705 20.5636 7.25131 21.0358 6.90342 21.3837C6.55553 21.7316 6.08333 21.9274 5.59164 21.9274H3.73624C2.19903 21.9274 0.953125 20.6814 0.953125 19.1442V14.8555C0.953125 13.4825 1.9467 12.3423 3.25383 12.1141C3.25847 10.4461 3.56647 6.9672 5.78368 4.08483C8.13634 1.02711 11.2228 0.012207 13.941 0.012207C16.6592 0.012207 19.7224 0.996501 22.0983 4.08483C24.3322 6.98947 24.6448 10.4572 24.6504 12.1178C25.9464 12.3553 26.9288 13.4908 26.9288 14.8555V19.1442C26.9288 20.6814 25.6829 21.9274 24.1457 21.9274V23.1408C24.1457 24.7132 22.8711 25.9879 21.2986 25.9879H13.941C13.4289 25.9879 13.0133 25.5723 13.0133 25.0602C13.0133 24.5481 13.4289 24.1325 13.941 24.1325H21.2986C21.8459 24.1325 22.2903 23.6881 22.2903 23.1408V21.9274C21.7986 21.9274 21.3264 21.7316 20.9785 21.3837C20.6307 21.0358 20.4349 20.5636 20.4349 20.0719V13.9278C20.4349 13.4361 20.6307 12.9639 20.9785 12.616C21.3264 12.2681 21.7986 12.0724 22.2903 12.0724H22.8006C22.7978 10.6604 22.5352 7.69731 20.6269 5.21663C18.6788 2.68307 16.1703 1.86761 13.941 1.86761C11.7117 1.86761 9.18464 2.70811 7.25502 5.21663C5.35972 7.67968 5.10367 10.6558 5.10274 12.0724ZM10.2302 17.6386C10.2302 17.6386 10.2302 15.1913 10.2302 15.1922C8.98055 14.1365 8.18643 12.5575 8.18643 10.7949C8.18643 7.61845 10.7654 5.04036 13.941 5.04036C17.1165 5.04036 19.6955 7.61845 19.6955 10.7949C19.6955 13.3127 18.0739 15.4557 15.8196 16.235C15.5181 16.3389 11.5967 18.4559 11.5967 18.4559C11.3091 18.6099 10.9621 18.6025 10.682 18.4345C10.4018 18.2676 10.2302 17.9651 10.2302 17.6386Z" fill="#65B5AF"/>
</svg>
