<svg width="27" height="15" viewBox="0 0 27 15" fill="none" xmlns="http://www.w3.org/2000/svg">
<path d="M13.17 0C7.17 0 1.92 2.91 0.09 7.26L0 7.5L0.09 7.74C1.92 12.09 7.17 15 13.17 15C19.17 15 24.42 12.09 26.25 7.74L26.34 7.5L26.25 7.26C24.42 2.91 19.17 0 13.17 0ZM13.17 13.8C7.83 13.8 3 11.22 1.32 7.5C3 3.78 7.83 1.2 13.17 1.2C18.51 1.2 23.34 3.78 25.02 7.5C23.34 11.22 18.51 13.8 13.17 13.8Z" fill="black"/>
<path d="M13.1703 3.15039C10.7703 3.15039 8.82031 5.10039 8.82031 7.50039C8.82031 9.90039 10.7703 11.8504 13.1703 11.8504C15.5703 11.8504 17.5203 9.90039 17.5203 7.50039C17.5203 5.10039 15.5703 3.15039 13.1703 3.15039ZM13.1703 10.6504C11.4303 10.6504 10.0203 9.24039 10.0203 7.50039C10.0203 5.76039 11.4303 4.35039 13.1703 4.35039C14.9103 4.35039 16.3203 5.76039 16.3203 7.50039C16.3203 9.24039 14.9103 10.6504 13.1703 10.6504Z" fill="black"/>
</svg>
