<svg width="58" height="24" viewBox="0 0 58 24" fill="none" xmlns="http://www.w3.org/2000/svg">
<path d="M27.4659 11.988V18.618H25.3271V2.22119H30.8878C32.2423 2.22119 33.5256 2.72023 34.5236 3.647C35.5217 4.50249 36.0208 5.78573 36.0208 7.14025C36.0208 8.49477 35.5217 9.70671 34.5236 10.6335C33.5256 11.5603 32.3136 12.0593 30.8878 12.0593L27.4659 11.988ZM27.4659 4.21733V9.92058H31.0304C31.8146 9.92058 32.5988 9.63542 33.0978 9.0651C34.2385 7.99574 34.2385 6.21347 33.1691 5.14411L33.0978 5.07282C32.5275 4.50249 31.8146 4.14604 31.0304 4.21733H27.4659Z" fill="white"/>
<path d="M40.9396 7.06689C42.508 7.06689 43.7199 7.49464 44.6467 8.35013C45.5735 9.20562 46.0012 10.3463 46.0012 11.7721V18.616H44.0051V17.0476H43.9338C43.0783 18.3308 41.8663 18.9724 40.4405 18.9724C39.2286 18.9724 38.1592 18.616 37.3037 17.9031C36.5195 17.1902 36.0205 16.1921 36.0205 15.1227C36.0205 13.9821 36.4483 13.0553 37.3037 12.3424C38.1592 11.6295 39.3712 11.3443 40.797 11.3443C42.0802 11.3443 43.0783 11.5582 43.8625 12.0572V11.5582C43.8625 10.8453 43.5773 10.1324 43.007 9.70465C42.4367 9.20561 41.7238 8.92045 40.9396 8.92045C39.7276 8.92045 38.8008 9.41949 38.1592 10.4176L36.3057 9.27691C37.4463 7.7798 38.9434 7.06689 40.9396 7.06689ZM38.2305 15.194C38.2305 15.7644 38.5157 16.2634 38.9434 16.5486C39.4425 16.905 40.0128 17.1189 40.5831 17.1189C41.4386 17.1189 42.2941 16.7624 42.9357 16.1208C43.6486 15.4792 44.0051 14.695 44.0051 13.8395C43.3634 13.3405 42.4367 13.0553 41.2247 13.0553C40.3692 13.0553 39.6563 13.2692 39.086 13.6969C38.5157 14.0534 38.2305 14.5524 38.2305 15.194Z" fill="white"/>
<path d="M57.5501 7.42236L50.4923 23.6053H48.3536L50.9913 17.9734L46.3574 7.49365H48.6387L51.9894 15.5495H52.0607L55.34 7.49365H57.5501V7.42236Z" fill="white"/>
<path d="M18.9817 10.5621C18.9817 9.92044 18.9104 9.27882 18.8391 8.63721H9.92773V12.273H14.9894C14.7755 13.4137 14.1339 14.483 13.1358 15.1247V17.4773H16.2013C17.9836 15.8376 18.9817 13.4137 18.9817 10.5621Z" fill="#4285F4"/>
<path d="M9.92793 19.7575C12.4944 19.7575 14.6331 18.902 16.2015 17.4762L13.136 15.1236C12.2805 15.6939 11.2112 16.0504 9.92793 16.0504C7.50404 16.0504 5.36532 14.4107 4.65241 12.1294H1.51562V14.5533C3.15531 17.7614 6.36339 19.7575 9.92793 19.7575Z" fill="#34A853"/>
<path d="M4.65268 12.1286C4.22494 10.9879 4.22494 9.70467 4.65268 8.49273V6.06885H1.51589C0.161369 8.7066 0.161369 11.8434 1.51589 14.5524L4.65268 12.1286Z" fill="#FBBC04"/>
<path d="M9.92792 4.64503C11.2824 4.64503 12.5657 5.14407 13.5637 6.07085L16.2728 3.3618C14.5618 1.79341 12.2805 0.866627 9.99921 0.937918C6.43468 0.937918 3.15531 2.93406 1.58691 6.14214L4.7237 8.56602C5.36532 6.28472 7.50404 4.64503 9.92792 4.64503Z" fill="#EA4335"/>
</svg>
