<svg width="21" height="25" viewBox="0 0 21 25" fill="none" xmlns="http://www.w3.org/2000/svg">
<path fill-rule="evenodd" clip-rule="evenodd" d="M14.8257 6.61615C14.8257 9.09372 12.8172 11.1022 10.3396 11.1022C7.86205 11.1022 5.85358 9.09372 5.85358 6.61615C5.85358 4.13857 7.86205 2.13011 10.3396 2.13011C12.8172 2.13011 14.8257 4.13857 14.8257 6.61615ZM16.7482 6.61615C16.7482 10.1555 13.879 13.0248 10.3396 13.0248C6.80024 13.0248 3.93099 10.1555 3.93099 6.61615C3.93099 3.07676 6.80024 0.20752 10.3396 0.20752C13.879 0.20752 16.7482 3.07676 16.7482 6.61615ZM2.32884 21.9968C2.32884 19.6963 4.19384 17.8312 6.49445 17.8312H14.1848C16.4854 17.8312 18.3504 19.6963 18.3504 21.9968V23.2786C18.3504 23.8095 18.7808 24.2399 19.3117 24.2399C19.8426 24.2399 20.273 23.8095 20.273 23.2786V21.9968C20.273 18.6344 17.5473 15.9087 14.1848 15.9087H6.49445C3.13203 15.9087 0.40625 18.6344 0.40625 21.9968V23.2786C0.40625 23.8095 0.836641 24.2399 1.36754 24.2399C1.89845 24.2399 2.32884 23.8095 2.32884 23.2786V21.9968Z" fill="black"/>
</svg>
