<svg width="50" height="50" viewBox="0 0 50 50" fill="none" xmlns="http://www.w3.org/2000/svg">
<circle cx="25" cy="25" r="25" fill="#0F2D2F"/>
<path d="M25 26.417C27.3472 26.417 29.25 24.5142 29.25 22.167C29.25 19.8198 27.3472 17.917 25 17.917C22.6528 17.917 20.75 19.8198 20.75 22.167C20.75 24.5142 22.6528 26.417 25 26.417Z" stroke="white" stroke-width="2" stroke-linecap="round" stroke-linejoin="round"/>
<path d="M25.0013 10.8335C21.9955 10.8335 19.1128 12.0275 16.9874 14.153C14.862 16.2784 13.668 19.161 13.668 22.1668C13.668 24.8472 14.2375 26.601 15.793 28.5418L25.0013 39.1668L34.2096 28.5418C35.7651 26.601 36.3346 24.8472 36.3346 22.1668C36.3346 19.161 35.1406 16.2784 33.0152 14.153C30.8898 12.0275 28.0071 10.8335 25.0013 10.8335Z" stroke="white" stroke-width="2" stroke-linecap="round" stroke-linejoin="round"/>
</svg>
