<svg width="36" height="36" viewBox="0 0 36 36" fill="none" xmlns="http://www.w3.org/2000/svg">
<path d="M15.5671 2.85248C15.5003 2.78245 15.4631 2.68943 15.4631 2.59269C15.4631 2.49595 15.5003 2.40292 15.5671 2.3329L17.7395 0.103987C17.8095 0.0372369 17.9025 0 17.9993 0C18.096 0 18.1891 0.0372369 18.2591 0.103987L20.4917 2.28395C20.5381 2.35588 20.5585 2.44144 20.5498 2.52655C20.541 2.61165 20.5035 2.69123 20.4434 2.75216C20.3833 2.8131 20.3043 2.85176 20.2193 2.86179C20.1344 2.87181 20.0485 2.85259 19.9759 2.8073L18.3796 1.2335V5.57084C18.3796 5.6707 18.3399 5.76647 18.2693 5.83707C18.1987 5.90768 18.1029 5.94735 18.003 5.94735C17.9032 5.94735 17.8074 5.90768 17.7368 5.83707C17.6662 5.76647 17.6265 5.6707 17.6265 5.57084V1.25986L16.0866 2.84495C16.0171 2.91588 15.9224 2.95648 15.8231 2.9579C15.7274 2.95655 15.6359 2.91886 15.5671 2.85248ZM19.9195 33.1461L18.3796 34.7312V30.3938C18.3796 30.294 18.3399 30.1982 18.2693 30.1276C18.1987 30.057 18.1029 30.0173 18.003 30.0173C17.9032 30.0173 17.8074 30.057 17.7368 30.1276C17.6662 30.1982 17.6265 30.294 17.6265 30.3938V34.7575L16.0226 33.1913C15.9921 33.1438 15.9512 33.1039 15.9031 33.0743C15.8551 33.0448 15.8009 33.0265 15.7448 33.0207C15.6887 33.0149 15.632 33.0218 15.5788 33.0409C15.5257 33.0599 15.4776 33.0907 15.438 33.1309C15.3984 33.1711 15.3683 33.2197 15.35 33.2731C15.3317 33.3264 15.3256 33.3832 15.3322 33.4393C15.3388 33.4953 15.3579 33.5492 15.3882 33.5968C15.4184 33.6445 15.4589 33.6847 15.5068 33.7146L17.7395 35.8946C17.8083 35.961 17.8999 35.9987 17.9955 36C18.0935 35.9976 18.1867 35.9571 18.2553 35.887L20.4353 33.6581C20.4801 33.5852 20.4987 33.4992 20.4881 33.4143C20.4775 33.3294 20.4382 33.2506 20.3768 33.191C20.3154 33.1313 20.2356 33.0944 20.1504 33.0862C20.0652 33.0781 19.9798 33.0992 19.9082 33.1461H19.9195ZM35.8946 17.732L33.6657 15.552C33.6348 15.5048 33.5936 15.4652 33.5453 15.436C33.497 15.4068 33.4428 15.3889 33.3866 15.3835C33.3305 15.3781 33.2738 15.3855 33.2208 15.4049C33.1679 15.4244 33.12 15.4555 33.0807 15.496C33.0414 15.5364 33.0116 15.5852 32.9937 15.6387C32.9758 15.6922 32.9701 15.7491 32.9771 15.8051C32.9841 15.861 33.0036 15.9147 33.0342 15.9622C33.0647 16.0096 33.1055 16.0496 33.1536 16.0791L34.7387 17.619H30.3562C30.2563 17.619 30.1606 17.6587 30.09 17.7293C30.0193 17.7999 29.9797 17.8957 29.9797 17.9955C29.9797 18.0954 30.0193 18.1911 30.09 18.2617C30.1606 18.3324 30.2563 18.372 30.3562 18.372H34.7651L33.1988 19.9759C33.1321 20.046 33.0948 20.139 33.0948 20.2357C33.0948 20.3325 33.1321 20.4255 33.1988 20.4955C33.2677 20.5619 33.3592 20.5996 33.4548 20.6009C33.5536 20.6005 33.6483 20.5613 33.7184 20.4917L35.8983 18.2591C35.9668 18.1882 36.0048 18.0933 36.0041 17.9948C36.0034 17.8962 35.9641 17.8019 35.8946 17.732ZM1.26739 18.372H5.52566C5.62552 18.372 5.72128 18.3324 5.79189 18.2617C5.8625 18.1911 5.90217 18.0954 5.90217 17.9955C5.90217 17.8957 5.8625 17.7999 5.79189 17.7293C5.72128 17.6587 5.62552 17.619 5.52566 17.619H1.24103L2.8073 16.0151C2.85259 15.9425 2.87181 15.8567 2.86179 15.7717C2.85176 15.6867 2.8131 15.6077 2.75216 15.5476C2.69123 15.4876 2.61165 15.4501 2.52655 15.4413C2.44144 15.4325 2.35588 15.4529 2.28395 15.4993L0.103987 17.7395C0.0372369 17.8095 0 17.9025 0 17.9993C0 18.096 0.0372369 18.1891 0.103987 18.2591L2.34043 20.439C2.40986 20.504 2.50133 20.5404 2.59645 20.5407C2.66728 20.5364 2.73545 20.5122 2.7931 20.4708C2.85076 20.4294 2.89555 20.3726 2.92231 20.3069C2.94907 20.2412 2.95671 20.1692 2.94436 20.0993C2.932 20.0295 2.90015 19.9645 2.85248 19.9119L1.26739 18.372ZM30.4277 26.9789C30.3279 26.9789 30.2321 27.0186 30.1615 27.0892C30.0909 27.1598 30.0512 27.2556 30.0512 27.3554L30.0776 29.5731L27.0015 26.4744C26.9293 26.4286 26.8436 26.4088 26.7585 26.4182C26.6735 26.4276 26.5942 26.4657 26.5337 26.5262C26.4732 26.5867 26.4351 26.666 26.4257 26.751C26.4163 26.836 26.4361 26.9217 26.4819 26.994L29.5956 30.1077L27.3366 30.134C27.2368 30.134 27.141 30.1737 27.0704 30.2443C26.9998 30.3149 26.9601 30.4107 26.9601 30.5106C26.9601 30.6104 26.9998 30.7062 27.0704 30.7768C27.141 30.8474 27.2368 30.8871 27.3366 30.8871L30.4541 30.8532C30.5539 30.8532 30.6497 30.8135 30.7203 30.7429C30.7909 30.6723 30.8306 30.5765 30.8306 30.4767L30.8042 27.3441C30.8013 27.2463 30.7603 27.1534 30.69 27.0852C30.6197 27.017 30.5257 26.9789 30.4277 26.9789ZM5.57837 9.00834C5.67823 9.00834 5.774 8.96867 5.8446 8.89806C5.91521 8.82745 5.95488 8.73169 5.95488 8.63183L5.92852 6.41422L8.94057 9.42626C9.01059 9.49301 9.10362 9.53025 9.20036 9.53025C9.29709 9.53025 9.39012 9.49301 9.46014 9.42626C9.52689 9.35624 9.56413 9.26321 9.56413 9.16647C9.56413 9.06973 9.52689 8.9767 9.46014 8.90668L6.42551 5.87205L8.68454 5.84569C8.7844 5.84569 8.88016 5.80603 8.95077 5.73542C9.02138 5.66481 9.06105 5.56904 9.06105 5.46919C9.06105 5.36933 9.02138 5.27357 8.95077 5.20296C8.88016 5.13235 8.7844 5.09268 8.68454 5.09268L5.56708 5.12657C5.46908 5.12896 5.37588 5.16949 5.30729 5.23952C5.24002 5.30932 5.20225 5.40237 5.20187 5.49931L5.23952 8.61677C5.23519 8.713 5.26791 8.80722 5.33094 8.88006C5.39397 8.95289 5.48252 8.9988 5.57837 9.00834ZM8.96692 26.5384L5.91723 29.5881L5.89087 27.3291C5.89087 27.2292 5.85121 27.1335 5.7806 27.0629C5.70999 26.9922 5.61422 26.9526 5.51437 26.9526C5.41451 26.9526 5.31875 26.9922 5.24814 27.0629C5.17753 27.1335 5.13786 27.2292 5.13786 27.3291L5.17175 30.4465C5.17175 30.5464 5.21142 30.6422 5.28202 30.7128C5.35263 30.7834 5.4484 30.8231 5.54825 30.8231L8.66572 30.7854C8.76557 30.7854 8.86134 30.7457 8.93195 30.6751C9.00256 30.6045 9.04222 30.5088 9.04222 30.4089C9.04222 30.309 9.00256 30.2133 8.93195 30.1427C8.86134 30.0721 8.76557 30.0324 8.66572 30.0324L6.4481 30.0587L9.46014 27.0279C9.50595 26.9556 9.52578 26.8699 9.51637 26.7849C9.50696 26.6999 9.46887 26.6206 9.40838 26.5601C9.34788 26.4996 9.26859 26.4615 9.18356 26.4521C9.09853 26.4427 9.01282 26.4625 8.94057 26.5083L8.96692 26.5384ZM26.7869 9.59569C26.8844 9.59429 26.9775 9.55515 27.0467 9.4865L30.1416 6.39163L30.1679 8.65066C30.1679 8.75051 30.2076 8.84628 30.2782 8.91689C30.3488 8.98749 30.4446 9.02716 30.5444 9.02716C30.6443 9.02716 30.7401 8.98749 30.8107 8.91689C30.8813 8.84628 30.9209 8.75051 30.9209 8.65066L30.8871 5.53319C30.8871 5.43334 30.8474 5.33757 30.7768 5.26696C30.7062 5.19636 30.6104 5.15669 30.5106 5.15669L27.3931 5.19434C27.3099 5.2133 27.2356 5.25994 27.1824 5.32664C27.1292 5.39333 27.1002 5.47612 27.1002 5.56143C27.1002 5.64675 27.1292 5.72953 27.1824 5.79623C27.2356 5.86292 27.3099 5.90957 27.3931 5.92852L29.6107 5.90217L26.5347 8.97822C26.4679 9.04824 26.4307 9.14127 26.4307 9.23801C26.4307 9.33474 26.4679 9.42777 26.5347 9.49779C26.5941 9.56056 26.6745 9.59939 26.7606 9.60698L26.7869 9.59569ZM26.8133 25.0324C26.3018 25.6694 25.7251 26.2511 25.0926 26.7681C24.8155 27 24.4657 27.1271 24.1043 27.1271C23.743 27.1271 23.3931 27 23.116 26.7681L21.8923 25.7553C21.7953 25.6706 21.676 25.6154 21.5487 25.596C21.4213 25.5767 21.2911 25.5941 21.1732 25.6461C21.0543 25.6946 20.9511 25.7752 20.8753 25.8789C20.7995 25.9826 20.7541 26.1054 20.744 26.2335L20.6122 27.8185C20.5841 28.179 20.4304 28.5181 20.1779 28.7768C19.9254 29.0355 19.5901 29.1974 19.2305 29.2342C18.8116 29.2807 18.3906 29.3045 17.9692 29.3057C17.5755 29.3052 17.1821 29.2838 16.7907 29.2417C16.4231 29.2157 16.0771 29.0584 15.8159 28.7985C15.5546 28.5386 15.3955 28.1935 15.3675 27.8261L15.2207 26.2447C15.2093 26.1167 15.1629 25.9943 15.0866 25.8909C15.0102 25.7875 14.9069 25.7071 14.788 25.6585C14.669 25.6099 14.5389 25.595 14.4121 25.6154C14.2852 25.6358 14.1663 25.6907 14.0686 25.7741L12.8525 26.7982C12.579 27.0336 12.2315 27.1652 11.8708 27.17C11.5101 27.1748 11.1592 27.0525 10.8796 26.8246C10.2417 26.3141 9.65988 25.7373 9.14388 25.1039C8.91195 24.8268 8.78487 24.477 8.78487 24.1156C8.78487 23.7542 8.91195 23.4044 9.14388 23.1273L10.1567 21.9074C10.2341 21.8089 10.2837 21.6915 10.3004 21.5673C10.317 21.4432 10.3 21.3168 10.2511 21.2014C10.2023 21.0861 10.1234 20.9859 10.0227 20.9114C9.92198 20.8369 9.80312 20.7908 9.67852 20.7779L8.11225 20.6311C7.75327 20.6003 7.41635 20.4449 7.15986 20.1919C6.90337 19.9389 6.74348 19.6041 6.70789 19.2455C6.61953 18.4334 6.61953 17.6141 6.70789 16.802C6.74109 16.4428 6.89962 16.1068 7.1557 15.8528C7.41178 15.5988 7.74907 15.443 8.10849 15.4127L9.69358 15.2659C9.82093 15.2532 9.94242 15.2061 10.045 15.1295C10.1476 15.053 10.2273 14.95 10.2757 14.8315C10.3241 14.713 10.3393 14.5836 10.3197 14.4571C10.3 14.3307 10.2463 14.212 10.1642 14.1137L9.14011 12.9014C8.90447 12.6274 8.77271 12.2792 8.76789 11.9179C8.76307 11.5565 8.8855 11.2049 9.11376 10.9247C9.62422 10.2869 10.201 9.70506 10.8344 9.18906C11.1115 8.95881 11.4605 8.83276 11.8208 8.83276C12.1812 8.83276 12.5301 8.95881 12.8073 9.18906L14.0309 10.2056C14.1295 10.2883 14.2489 10.3423 14.3761 10.3616C14.5034 10.3809 14.6334 10.3647 14.7521 10.3149C14.8707 10.2651 14.9734 10.1836 15.0487 10.0793C15.1241 9.97502 15.1692 9.85198 15.1793 9.7237L15.3148 8.13861C15.342 7.77851 15.495 7.43945 15.7469 7.18067C15.9988 6.9219 16.3336 6.75989 16.6928 6.72295C17.5049 6.63459 18.3242 6.63459 19.1363 6.72295C19.4953 6.75842 19.8306 6.91817 20.0842 7.1746C20.3379 7.43102 20.494 7.768 20.5256 8.12732L20.6386 9.7124C20.65 9.84041 20.6964 9.96282 20.7727 10.0662C20.849 10.1696 20.9523 10.25 21.0713 10.2986C21.1903 10.3472 21.3203 10.3621 21.4472 10.3417C21.5741 10.3214 21.6929 10.2665 21.7907 10.183L23.003 9.15894C23.278 8.92535 23.6258 8.79492 23.9866 8.79011C24.3474 8.7853 24.6986 8.90641 24.9797 9.13258C25.6219 9.63776 26.2076 10.2109 26.7267 10.8419C26.9572 11.1197 27.0834 11.4693 27.0834 11.8302C27.0834 12.1912 26.9572 12.5408 26.7267 12.8186L25.7101 14.0384C25.6277 14.1374 25.574 14.2571 25.5549 14.3844C25.5358 14.5117 25.5519 14.6419 25.6016 14.7607C25.6513 14.8795 25.7326 14.9824 25.8367 15.0582C25.9408 15.1339 26.0637 15.1797 26.192 15.1906L27.7771 15.3223C28.1367 15.351 28.475 15.5044 28.7335 15.756C28.992 16.0076 29.1544 16.3417 29.1928 16.7003C29.2794 17.5125 29.2794 18.3317 29.1928 19.1439C29.1607 19.5045 29.0028 19.8424 28.7467 20.0984C28.4907 20.3544 28.1528 20.5123 27.7922 20.5445L26.2109 20.6913C26.0825 20.7021 25.9597 20.748 25.8558 20.8241C25.7518 20.9002 25.6709 21.0034 25.6219 21.1225C25.5729 21.2416 25.5576 21.3719 25.5778 21.4991C25.598 21.6262 25.6529 21.7454 25.7365 21.8434L26.7606 23.0595C26.9952 23.3333 27.1264 23.6807 27.1312 24.0412C27.136 24.4017 27.0142 24.7525 26.7869 25.0324H26.8133ZM26.2222 23.5264L25.1566 22.3178C24.9865 22.1173 24.8748 21.8738 24.8337 21.6141C24.7926 21.3543 24.8236 21.0883 24.9235 20.845C25.0234 20.6017 25.1882 20.3906 25.4 20.2347C25.6118 20.0787 25.8623 19.984 26.1243 19.9609L27.7056 19.814C27.8975 19.7999 28.0782 19.7185 28.2159 19.5842C28.3537 19.4499 28.4396 19.2713 28.4586 19.0799C28.5396 18.3202 28.5396 17.5541 28.4586 16.7945C28.438 16.6044 28.3513 16.4275 28.2137 16.2948C28.0761 16.162 27.8963 16.0817 27.7056 16.0678L26.1243 15.9323C25.8637 15.9082 25.6147 15.8132 25.4042 15.6577C25.1936 15.5023 25.0297 15.2922 24.93 15.0502C24.8304 14.8082 24.7988 14.5436 24.8387 14.2849C24.8787 14.0263 24.9886 13.7835 25.1566 13.5829L26.1506 12.3479C26.2728 12.2017 26.3398 12.0171 26.3398 11.8265C26.3398 11.6359 26.2728 11.4513 26.1506 11.305C25.67 10.7186 25.1285 10.1848 24.5354 9.7124C24.3891 9.59018 24.2046 9.52322 24.014 9.52322C23.8233 9.52322 23.6388 9.59018 23.4925 9.7124L22.2801 10.7365C22.0788 10.905 21.8352 11.0153 21.5758 11.0555C21.3164 11.0957 21.0508 11.0644 20.8079 10.9648C20.565 10.8652 20.3538 10.7012 20.1973 10.4905C20.0407 10.2797 19.9447 10.0302 19.9195 9.76888L19.7726 8.20638C19.7594 8.01484 19.6787 7.83417 19.5451 7.69636C19.4114 7.55854 19.2332 7.47247 19.0422 7.45337C18.2826 7.37241 17.5165 7.37241 16.7568 7.45337C16.5663 7.4739 16.389 7.56042 16.2556 7.69795C16.1222 7.83548 16.0411 8.01535 16.0264 8.20638L15.8946 9.7877C15.8728 10.0499 15.7795 10.3011 15.6248 10.514C15.4701 10.7269 15.26 10.8932 15.0174 10.9949C14.7747 11.0967 14.5088 11.1299 14.2485 11.0909C13.9883 11.052 13.7437 10.9424 13.5415 10.7741L12.3216 9.75758C12.1753 9.63536 11.9907 9.5684 11.8001 9.5684C11.6095 9.5684 11.4249 9.63536 11.2787 9.75758C10.6866 10.2398 10.1477 10.7838 9.67099 11.3803C9.54876 11.5266 9.4818 11.7112 9.4818 11.9018C9.4818 12.0924 9.54876 12.277 9.67099 12.4232L10.6951 13.6356C10.8648 13.8363 10.9763 14.0796 11.0174 14.3392C11.0585 14.5988 11.0278 14.8647 10.9284 15.108C10.8291 15.3513 10.665 15.5627 10.4539 15.7193C10.2428 15.8759 9.9929 15.9717 9.73123 15.9963L8.14614 16.1431C7.95409 16.1549 7.77259 16.235 7.63447 16.369C7.49636 16.503 7.41075 16.6819 7.39313 16.8735C7.31217 17.6332 7.31217 18.3993 7.39313 19.1589C7.41233 19.3496 7.49855 19.5272 7.63643 19.6603C7.77431 19.7933 7.95493 19.8732 8.14614 19.8856L9.73123 20.0211C9.99277 20.0434 10.2432 20.1368 10.4555 20.2913C10.6677 20.4458 10.8336 20.6554 10.9352 20.8974C11.0368 21.1394 11.0703 21.4046 11.0319 21.6643C10.9936 21.924 10.8849 22.1682 10.7177 22.3705L9.71993 23.5979C9.59771 23.7442 9.53075 23.9288 9.53075 24.1194C9.53075 24.31 9.59771 24.4946 9.71993 24.6408C10.2002 25.2347 10.7444 25.7738 11.3427 26.2485C11.4883 26.3705 11.6723 26.4373 11.8622 26.4373C12.0522 26.4373 12.2361 26.3705 12.3818 26.2485L13.5979 25.2244C13.8559 25.0033 14.1844 24.8818 14.5241 24.8818C14.7114 24.8828 14.8968 24.9198 15.0701 24.991C15.3132 25.0901 15.5244 25.2543 15.6805 25.4655C15.8365 25.6767 15.9315 25.9267 15.9549 26.1883L16.1017 27.7696C16.1158 27.9615 16.1972 28.1422 16.3315 28.2799C16.4658 28.4177 16.6444 28.5036 16.8359 28.5226C17.5955 28.6035 18.3616 28.6035 19.1213 28.5226C19.3116 28.5027 19.4889 28.4162 19.6218 28.2785C19.7547 28.1408 19.8348 27.9606 19.8479 27.7696L19.9835 26.1845C20.0058 25.923 20.0992 25.6725 20.2537 25.4603C20.4081 25.248 20.6177 25.0821 20.8597 24.9805C21.1018 24.8789 21.367 24.8455 21.6266 24.8838C21.8863 24.9221 22.1305 25.0308 22.3329 25.1981L23.5565 26.2146C23.7028 26.3369 23.8873 26.4038 24.078 26.4038C24.2686 26.4038 24.4531 26.3369 24.5994 26.2146C25.1933 25.7344 25.7324 25.1902 26.2071 24.5919C26.3327 24.4429 26.4007 24.2538 26.3986 24.0589C26.3966 23.8641 26.3246 23.6764 26.1958 23.5301L26.2222 23.5264ZM23.1423 17.9955C23.1394 19.024 22.8317 20.0285 22.2581 20.8822C21.6846 21.7359 20.8709 22.4005 19.9198 22.792C18.9688 23.1835 17.9231 23.2844 16.9147 23.0819C15.9064 22.8795 14.9807 22.3827 14.2545 21.6544C13.5283 20.9261 13.0342 19.999 12.8346 18.99C12.6351 17.9811 12.739 16.9357 13.1333 15.9858C13.5275 15.0359 14.1945 14.2241 15.0498 13.653C15.9052 13.082 16.9106 12.7772 17.939 12.7772C18.6235 12.7776 19.3011 12.9131 19.9332 13.1757C20.5652 13.4383 21.1393 13.8229 21.6226 14.3076C22.1058 14.7923 22.4888 15.3675 22.7496 16.0003C23.0104 16.6331 23.1438 17.3111 23.1423 17.9955ZM22.4082 17.9955C22.4119 17.1108 22.1529 16.2449 21.6641 15.5075C21.1753 14.7701 20.4787 14.1943 19.6624 13.8532C18.8461 13.512 17.9469 13.4209 17.0788 13.5912C16.2106 13.7615 15.4125 14.1856 14.7856 14.8099C14.1587 15.4341 13.7312 16.2304 13.5572 17.0979C13.3833 17.9653 13.4707 18.8649 13.8083 19.6826C14.146 20.5003 14.7188 21.1994 15.4542 21.6913C16.1895 22.1832 17.0543 22.4458 17.939 22.4458C19.1208 22.4448 20.2541 21.9762 21.0915 21.1424C21.9288 20.3086 22.4022 19.1772 22.4082 17.9955Z" fill="black"/>
</svg>
