<svg width="35" height="36" viewBox="0 0 35 36" fill="none" xmlns="http://www.w3.org/2000/svg">
<path d="M12.6293 21.9408C16.5836 21.9408 17.0993 27.2759 13.2007 27.9148V29.8852C13.2007 30.582 12.058 30.5831 12.058 29.8852V27.962H9.93923C9.18423 27.962 9.18345 26.9072 9.93923 26.9072H12.622C12.6244 26.9071 12.6268 26.9068 12.6293 26.9068C12.631 26.9068 12.6326 26.907 12.6342 26.907C15.4301 26.9011 15.4275 22.9957 12.6293 22.9957C8.67521 22.9957 8.15919 17.6606 12.058 17.0217V15.0513C12.058 14.3545 13.2007 14.3534 13.2007 15.0513V16.9745H15.3194C16.0744 16.9745 16.0752 18.0293 15.3194 18.0293H12.6367C12.6342 18.0294 12.6318 18.0297 12.6293 18.0297C12.6277 18.0297 12.6261 18.0295 12.6244 18.0294C9.82854 18.0353 9.83115 21.9408 12.6293 21.9408ZM19.5476 8.01364C18.6965 7.22813 18.6964 5.95657 19.5476 5.1707C20.3967 4.387 21.7783 4.387 22.6275 5.1707C23.4786 5.95636 23.4787 7.22798 22.6275 8.01371C21.7765 8.79932 20.3987 8.79951 19.5476 8.01364ZM20.3556 7.26778C20.7603 7.64131 21.4148 7.64124 21.8195 7.26785C22.224 6.89434 22.224 6.29003 21.8195 5.91656C21.4157 5.54405 20.7593 5.54409 20.3556 5.91663C19.9512 6.28995 19.951 6.8944 20.3556 7.26778ZM28.941 10.3196C29.7901 11.1034 29.7901 12.3788 28.941 13.1626C28.092 13.9463 26.7103 13.9464 25.8611 13.1626C25.0119 12.3788 25.0119 11.1034 25.8611 10.3196C26.7101 9.53579 28.0918 9.53593 28.941 10.3196C28.941 10.3196 28.941 10.3196 28.941 10.3196ZM28.1329 11.0654C27.7294 10.693 27.0727 10.693 26.6691 11.0655C26.2655 11.438 26.2655 12.0442 26.6691 12.4168C27.0727 12.7892 27.7294 12.7893 28.1329 12.4167C28.5365 12.0442 28.5365 11.438 28.1329 11.0654ZM27.6375 5.28854L20.043 12.2988C19.5092 12.7916 20.3164 13.538 20.851 13.0447L28.4455 6.03447C28.9793 5.54166 28.1721 4.79522 27.6375 5.28854ZM34.1748 9.16715C34.1748 10.4919 32.8088 11.4208 32.418 12.2922C32.0086 13.2019 32.2472 14.7428 31.2674 15.6481C30.2846 16.5536 28.6162 16.3341 27.6301 16.7112C26.6875 17.0722 25.6786 18.3336 24.2437 18.3336C22.6916 18.3336 21.7518 16.9205 20.5588 16.6188V22.0452H22.5738C24.9724 22.0452 26.1641 24.7291 24.4505 26.2822L14.5065 35.2961C13.4714 36.2346 11.7874 36.2347 10.7522 35.296L0.80821 26.2822C-0.903539 24.7309 0.283611 22.0452 2.68493 22.0452H4.69995V9.65027C4.69995 8.2869 5.90156 7.17775 7.37851 7.17775H15.2496C15.5816 6.77101 15.9112 6.39717 16.0712 6.04162C16.4801 5.13232 16.241 3.59084 17.2216 2.68486C18.2055 1.77666 19.8661 2.00145 20.8589 1.62172C21.8151 1.25567 22.7983 0 24.2437 0C25.6777 0 26.687 1.26099 27.63 1.62172C28.6162 1.99953 30.2848 1.77946 31.2668 2.68431C32.2473 3.59112 32.0087 5.13181 32.4178 6.04168C32.8086 6.91253 34.1748 7.8419 34.1748 9.16715ZM19.9874 23.1C19.6719 23.1 19.416 22.8639 19.416 22.5726V16.4323C18.6313 16.3274 17.7985 16.1807 17.2218 15.6482C16.2357 14.7362 16.4846 13.2106 16.0712 12.2929C15.6742 11.4197 14.3134 10.4882 14.3134 9.16715C14.3134 8.84434 14.3993 8.52506 14.5368 8.23257H7.37851C6.53166 8.23257 5.84268 8.86856 5.84268 9.65027V22.5726C5.84268 22.8639 5.58687 23.1 5.27131 23.1H2.68493C1.31058 23.1 0.627883 24.6405 1.60883 25.5296L11.5529 34.5434C12.1465 35.0817 13.1122 35.0818 13.7058 34.5435L23.6499 25.5296C24.6305 24.6408 23.9487 23.1 22.5738 23.1H19.9874ZM33.0321 9.16715C33.0321 8.30343 31.8206 7.46711 31.3622 6.44569C30.8917 5.39935 31.0843 4.00874 30.4588 3.43017C29.832 2.8527 28.3274 3.03102 27.1923 2.59606C26.0864 2.17318 25.1781 1.05482 24.2437 1.05482C23.3088 1.05482 22.4056 2.17154 21.2965 2.59613C20.1661 3.02848 18.6532 2.85508 18.0298 3.43058C17.4043 4.00843 17.597 5.3999 17.1265 6.4461C16.6659 7.4701 15.4561 8.30215 15.4561 9.16715C15.4561 10.0274 16.6607 10.8637 17.1257 11.8863C17.5979 12.935 17.4044 14.3239 18.0302 14.9028C18.4455 15.2861 19.263 15.3394 20.0741 15.4544C22.4364 15.7864 23.0447 17.2788 24.2437 17.2788C25.179 17.2788 26.086 16.1606 27.1924 15.7368C28.3262 15.3032 29.8321 15.4802 30.4595 14.902C31.0838 14.3253 30.8921 12.9333 31.3625 11.8881C31.8204 10.8671 33.0321 10.0301 33.0321 9.16715Z" fill="black"/>
</svg>
