<svg width="21" height="25" viewBox="0 0 21 25" fill="none" xmlns="http://www.w3.org/2000/svg">
<path fill-rule="evenodd" clip-rule="evenodd" d="M14.9861 6.89251C14.9861 9.37009 12.9776 11.3786 10.5 11.3786C8.02245 11.3786 6.01398 9.37009 6.01398 6.89251C6.01398 4.41494 8.02245 2.40647 10.5 2.40647C12.9776 2.40647 14.9861 4.41494 14.9861 6.89251ZM16.9086 6.89251C16.9086 10.4319 14.0394 13.3011 10.5 13.3011C6.96064 13.3011 4.09139 10.4319 4.09139 6.89251C4.09139 3.35313 6.96064 0.483887 10.5 0.483887C14.0394 0.483887 16.9086 3.35313 16.9086 6.89251ZM2.48924 22.2732C2.48924 19.9726 4.35424 18.1076 6.65485 18.1076H14.3452C16.6458 18.1076 18.5108 19.9726 18.5108 22.2732V23.5549C18.5108 24.0858 18.9412 24.5162 19.4721 24.5162C20.003 24.5162 20.4334 24.0858 20.4334 23.5549V22.2732C20.4334 18.9107 17.7077 16.185 14.3452 16.185H6.65485C3.29243 16.185 0.56665 18.9107 0.56665 22.2732V23.5549C0.56665 24.0858 0.997041 24.5162 1.52794 24.5162C2.05885 24.5162 2.48924 24.0858 2.48924 23.5549V22.2732Z" fill="black"/>
</svg>
