<svg width="23" height="27" viewBox="0 0 23 27" fill="none" xmlns="http://www.w3.org/2000/svg">
<path d="M20.8251 5.72937C20.8014 5.48714 20.5982 5.30161 20.3548 5.30161H16.101V4.82895C16.101 2.4834 14.1927 0.575195 11.8472 0.575195C9.50185 0.575195 7.59349 2.48355 7.59349 4.82895V5.30161H3.33974C3.09632 5.30161 2.89188 5.48713 2.86944 5.72937L0.978813 25.5809C0.965815 25.7133 1.00953 25.8445 1.09934 25.9437C1.18915 26.0418 1.31676 26.0985 1.44909 26.0985H22.246C22.3783 26.0985 22.5059 26.0418 22.5957 25.9437C22.6855 25.8444 22.7293 25.7133 22.7163 25.5809L20.8251 5.72937ZM8.53841 4.82895C8.53841 3.00451 10.0225 1.52021 11.8472 1.52021C13.6718 1.52021 15.1559 3.00433 15.1559 4.82895V5.30161H8.53871L8.53841 4.82895ZM1.96841 25.1533L3.76923 6.24707H7.59313V8.20507C6.78016 8.41658 6.17516 9.15038 6.17516 10.0283C6.17516 11.0705 7.02358 11.919 8.06579 11.919C9.10799 11.919 9.95641 11.0705 9.95641 10.0283C9.95641 9.1492 9.35141 8.41657 8.53844 8.20507V6.24707H15.1556V8.20507C14.3427 8.41658 13.7377 9.15038 13.7377 10.0283C13.7377 11.0705 14.5861 11.919 15.6283 11.919C16.6705 11.919 17.5189 11.0705 17.5189 10.0283C17.5189 9.1492 16.9139 8.41657 16.1009 8.20507V6.24707H19.9249L21.7257 25.1533H1.96841ZM8.06561 9.08301C8.58672 9.08301 9.01092 9.50721 9.01092 10.0283C9.01092 10.5494 8.58672 10.9736 8.06561 10.9736C7.54449 10.9736 7.12029 10.5494 7.12029 10.0283C7.12029 9.50721 7.54449 9.08301 8.06561 9.08301ZM15.6281 9.08301C16.1492 9.08301 16.5734 9.50721 16.5734 10.0283C16.5734 10.5494 16.1492 10.9736 15.6281 10.9736C15.107 10.9736 14.6828 10.5494 14.6828 10.0283C14.6828 9.50721 15.107 9.08301 15.6281 9.08301Z" fill="black"/>
</svg>
