<svg width="27" height="24" viewBox="0 0 27 24" fill="none" xmlns="http://www.w3.org/2000/svg">
<path d="M7.80288 0.891113C3.44622 0.891113 0.535156 4.46819 0.535156 8.44954C0.535156 12.1849 2.65645 15.4134 5.25009 17.9612C7.84373 20.509 10.9389 22.3978 13.0629 23.4937C13.1445 23.5352 13.2348 23.5568 13.3263 23.5568C13.4179 23.5568 13.5082 23.5352 13.5898 23.4937C15.7138 22.3978 18.809 20.509 21.4026 17.9612C23.9962 15.4134 26.1175 12.1849 26.1175 8.44954C26.1175 4.46819 23.2065 0.891113 18.8498 0.891113C16.2816 0.891113 14.5756 2.20059 13.3263 3.97081C12.0771 2.20059 10.3711 0.891113 7.80288 0.891113ZM7.80288 2.05395C10.2933 2.05395 11.658 3.2965 12.8267 5.25175C12.8782 5.33833 12.9514 5.41003 13.039 5.45982C13.1266 5.50962 13.2256 5.5358 13.3263 5.5358C13.4271 5.5358 13.5261 5.50962 13.6137 5.45982C13.7013 5.41003 13.7745 5.33833 13.826 5.25175C14.9947 3.2965 16.3594 2.05395 18.8498 2.05395C22.579 2.05395 24.9547 5.02131 24.9547 8.44954C24.9547 11.7414 23.0539 14.7001 20.585 17.1254C18.2059 19.4624 15.3631 21.2399 13.3263 22.3127C11.2896 21.2399 8.44674 19.4624 6.06771 17.1254C3.59876 14.7001 1.69799 11.7414 1.69799 8.44954C1.69799 5.02131 4.07366 2.05395 7.80288 2.05395Z" fill="black"/>
</svg>
