<svg width="41" height="37" viewBox="0 0 41 37" fill="none" xmlns="http://www.w3.org/2000/svg">
<path d="M39.6606 22.6735C38.7741 21.1674 37.515 20.809 35.3184 21.4335L28.492 23.3711C28.2422 22.8539 27.852 22.4173 27.366 22.1112C26.8799 21.8051 26.3176 21.6419 25.7432 21.6401H20.484C19.9118 20.879 19.1741 20.258 18.3267 19.8238C17.4793 19.3897 16.5443 19.1538 15.5924 19.134C14.6524 19.1595 13.7305 19.3984 12.8964 19.8325C12.0622 20.2667 11.3377 20.8848 10.7775 21.6401H5.92283V20.5173C5.92245 20.165 5.78235 19.8273 5.53327 19.5782C5.28418 19.3291 4.94645 19.189 4.59419 19.1886H1.32935C0.977025 19.189 0.639225 19.3291 0.390024 19.5781C0.140823 19.8272 0.000563526 20.1649 0 20.5173V34.309C0.000375748 34.6615 0.140553 34.9994 0.389774 35.2486C0.638995 35.4978 0.976902 35.638 1.32935 35.6384H4.59419C4.94657 35.638 5.28441 35.4978 5.53352 35.2486C5.78262 34.9993 5.92264 34.6614 5.92283 34.309V34.0251H12.4525L21.1568 36.6555C21.2084 36.671 21.262 36.6789 21.3158 36.6789C21.4137 36.679 21.5098 36.6528 21.594 36.6029L38.3014 26.7808C38.9936 26.3775 39.5313 25.7548 39.8295 25.0114C39.982 24.6347 40.0461 24.2281 40.0168 23.8228C39.9875 23.4175 39.8656 23.0243 39.6606 22.6735ZM4.82272 34.309C4.82199 34.3699 4.79755 34.428 4.7546 34.4711C4.71166 34.5142 4.65359 34.5388 4.59277 34.5397H1.32794C1.26682 34.5395 1.20825 34.5152 1.16503 34.4719C1.12182 34.4287 1.09745 34.3702 1.09727 34.309V20.5173C1.09819 20.4564 1.12281 20.3984 1.16589 20.3554C1.20897 20.3125 1.26711 20.288 1.32794 20.2873H4.59277C4.65353 20.288 4.71159 20.3125 4.75456 20.3555C4.79752 20.3984 4.82199 20.4565 4.82272 20.5173V34.309ZM38.8032 24.6189C38.5953 25.1307 38.2223 25.5583 37.7436 25.834L21.2441 35.5362L12.6917 32.9506C12.6404 32.9347 12.5871 32.9266 12.5334 32.9265H5.92283V22.7402H11.0465C11.1318 22.7402 11.2159 22.7204 11.2922 22.6822C11.3685 22.644 11.4348 22.5885 11.4858 22.5202C11.9439 21.8423 12.5554 21.2821 13.2707 20.885C13.986 20.4879 14.7848 20.2652 15.6023 20.2348H15.6272C16.451 20.2661 17.2562 20.4895 17.9783 20.8873C18.7004 21.2851 19.3196 21.8462 19.7863 22.5258C19.8378 22.5924 19.9038 22.6461 19.9794 22.6831C20.0549 22.72 20.138 22.739 20.2221 22.7388H25.7467C26.2629 22.7486 26.7546 22.9605 27.1162 23.329C27.4778 23.6975 27.6803 24.1931 27.6803 24.7094C27.6803 25.2256 27.4778 25.7213 27.1162 26.0898C26.7546 26.4583 26.2629 26.6702 25.7467 26.68H14.3525C14.2787 26.6773 14.2052 26.6896 14.1363 26.716C14.0674 26.7424 14.0045 26.7824 13.9513 26.8336C13.8982 26.8848 13.856 26.9463 13.8271 27.0142C13.7983 27.0821 13.7834 27.1552 13.7834 27.229C13.7834 27.3028 13.7983 27.3758 13.8271 27.4437C13.856 27.5117 13.8982 27.5731 13.9513 27.6243C14.0045 27.6756 14.0674 27.7156 14.1363 27.742C14.2052 27.7684 14.2787 27.7806 14.3525 27.778H25.7432C26.5566 27.777 27.3364 27.4536 27.9117 26.8786C28.487 26.3035 28.8108 25.5238 28.8121 24.7104C28.8121 24.616 28.8079 24.5216 28.7994 24.4265L35.6186 22.4903C37.5449 21.9417 38.1737 22.3101 38.7138 23.2306C38.8343 23.4396 38.905 23.6736 38.9205 23.9143C38.936 24.1551 38.8959 24.3961 38.8032 24.6189ZM5.76811 17.5633H38.6776C38.8233 17.5633 38.963 17.5054 39.0661 17.4024C39.1691 17.2994 39.227 17.1596 39.227 17.0139C39.2246 15.7108 38.8226 14.4398 38.0752 13.3723C37.3278 12.3048 36.271 11.4922 35.0473 11.0443C35.7037 10.5801 36.1954 9.91916 36.4512 9.157C36.7071 8.39483 36.7137 7.57104 36.4702 6.80485C36.2267 6.03866 35.7457 5.36984 35.0968 4.89519C34.4479 4.42055 33.6648 4.16471 32.8609 4.16471C32.0569 4.16471 31.2738 4.42055 30.625 4.89519C29.9761 5.36984 29.4951 6.03866 29.2516 6.80485C29.0081 7.57104 29.0147 8.39483 29.2705 9.157C29.5263 9.91916 30.0181 10.5801 30.6745 11.0443C30.0316 11.2771 29.4307 11.6127 28.8952 12.0379C27.8542 10.6399 26.4023 9.60238 24.7425 9.07047C25.6572 8.51977 26.3664 7.68452 26.7614 6.69254C27.1564 5.70056 27.2156 4.60647 26.9298 3.57768C26.644 2.54889 26.0291 1.64206 25.179 0.995943C24.3289 0.349824 23.2906 0 22.2229 0C21.1551 0 20.1168 0.349824 19.2667 0.995943C18.4166 1.64206 17.8017 2.54889 17.5159 3.57768C17.2301 4.60647 17.2893 5.70056 17.6843 6.69254C18.0793 7.68452 18.7885 8.51977 19.7033 9.07047C18.0433 9.6024 16.5912 10.6402 15.5505 12.0386C15.0148 11.6133 14.4137 11.2778 13.7705 11.045C14.4269 10.581 14.9186 9.92015 15.1744 9.15811C15.4303 8.39608 15.437 7.5724 15.1935 6.80631C14.9501 6.04023 14.4692 5.37149 13.8204 4.8969C13.1716 4.42231 12.3887 4.16649 11.5848 4.16649C10.781 4.16649 9.99802 4.42231 9.34925 4.8969C8.70047 5.37149 8.21956 6.04023 7.97613 6.80631C7.73271 7.5724 7.7394 8.39608 7.99523 9.15811C8.25107 9.92015 8.74277 10.581 9.39917 11.045C8.17527 11.4928 7.11821 12.3052 6.37065 13.3727C5.6231 14.4403 5.22105 15.7114 5.21876 17.0147C5.21914 17.1602 5.27716 17.2996 5.38012 17.4024C5.48308 17.5053 5.62259 17.5631 5.76811 17.5633ZM30.172 7.96114C30.1717 7.42922 30.3292 6.90917 30.6246 6.46679C30.92 6.02442 31.3399 5.67961 31.8314 5.47599C32.3228 5.27237 32.8635 5.21909 33.3852 5.3229C33.9069 5.4267 34.3861 5.68293 34.7621 6.05915C35.1381 6.43537 35.3941 6.91469 35.4976 7.43643C35.6012 7.95818 35.5476 8.49891 35.3437 8.99021C35.1398 9.4815 34.7948 9.90128 34.3523 10.1964C33.9097 10.4916 33.3896 10.6488 32.8577 10.6482C32.1456 10.6467 31.4632 10.3631 30.9598 9.85946C30.4564 9.35582 30.1731 8.67321 30.172 7.96114ZM32.8577 11.7469C34.1586 11.7484 35.4131 12.2309 36.3798 13.1015C37.3464 13.9722 37.9571 15.1695 38.0942 16.4632H30.5304C30.4524 15.2338 30.1008 14.0374 29.5013 12.9613C30.4433 12.1759 31.6312 11.7461 32.8577 11.7469ZM18.4357 4.89148C18.4355 4.14267 18.6574 3.41063 19.0734 2.78795C19.4893 2.16527 20.0806 1.67993 20.7724 1.3933C21.4641 1.10668 22.2254 1.03165 22.9598 1.1777C23.6943 1.32375 24.3689 1.68433 24.8984 2.21382C25.4279 2.74332 25.7885 3.41794 25.9345 4.15238C26.0806 4.88682 26.0055 5.64807 25.7189 6.33986C25.4323 7.03165 24.9469 7.6229 24.3243 8.03884C23.7016 8.45477 22.9695 8.6767 22.2207 8.67656C21.2173 8.67525 20.2553 8.27604 19.5457 7.56649C18.8362 6.85693 18.437 5.89495 18.4357 4.89148ZM22.2207 9.77525C24.0447 9.77713 25.8009 10.4667 27.1388 11.7064C28.4768 12.9461 29.2981 14.6446 29.4388 16.4632H15.004C15.1448 14.6449 15.9659 12.9465 17.3035 11.7069C18.6412 10.4672 20.397 9.77749 22.2207 9.77525ZM8.89525 7.96114C8.89525 7.42968 9.05284 6.91016 9.3481 6.46826C9.64337 6.02637 10.063 5.68196 10.554 5.47858C11.045 5.2752 11.5853 5.22199 12.1066 5.32567C12.6278 5.42935 13.1066 5.68527 13.4824 6.06107C13.8582 6.43687 14.1141 6.91566 14.2178 7.43691C14.3215 7.95816 14.2683 8.49844 14.0649 8.98944C13.8615 9.48045 13.5171 9.90012 13.0752 10.1954C12.6333 10.4906 12.1138 10.6482 11.5823 10.6482C10.87 10.6473 10.187 10.3639 9.68332 9.86017C9.17959 9.35644 8.89619 8.67351 8.89525 7.96114ZM11.5823 11.7469C12.8098 11.7454 13.9988 12.1752 14.9416 12.9613C14.3421 14.0374 13.9905 15.2338 13.9124 16.4632H6.34584C6.48313 15.1695 7.0938 13.9723 8.06044 13.1017C9.02708 12.2311 10.2814 11.7486 11.5823 11.7469Z" fill="black"/>
</svg>
