<svg width="23" height="27" viewBox="0 0 23 27" fill="none" xmlns="http://www.w3.org/2000/svg">
<path d="M20.4775 5.89246C20.4539 5.65022 20.2507 5.46469 20.0072 5.46469H15.7535V4.99204C15.7535 2.64648 13.8451 0.738281 11.4997 0.738281C9.15431 0.738281 7.24596 2.64663 7.24596 4.99204V5.46469H2.9922C2.74878 5.46469 2.54435 5.65021 2.5219 5.89246L0.631279 25.744C0.618281 25.8764 0.662 26.0075 0.751807 26.1068C0.841613 26.2049 0.969229 26.2616 1.10156 26.2616H21.8984C22.0308 26.2616 22.1584 26.2049 22.2482 26.1068C22.338 26.0075 22.3817 25.8764 22.3687 25.744L20.4775 5.89246ZM8.19088 4.99204C8.19088 3.1676 9.675 1.68329 11.4996 1.68329C13.3242 1.68329 14.8084 3.16742 14.8084 4.99204V5.46469H8.19118L8.19088 4.99204ZM1.62088 25.3164L3.42169 6.41016H7.2456V8.36815C6.43263 8.57967 5.82763 9.31347 5.82763 10.1914C5.82763 11.2336 6.67605 12.082 7.71825 12.082C8.76046 12.082 9.60888 11.2336 9.60888 10.1914C9.60888 9.31229 9.00388 8.57966 8.19091 8.36815V6.41016H14.8081V8.36815C13.9951 8.57967 13.3901 9.31347 13.3901 10.1914C13.3901 11.2336 14.2386 12.082 15.2808 12.082C16.323 12.082 17.1714 11.2336 17.1714 10.1914C17.1714 9.31229 16.5664 8.57966 15.7534 8.36815V6.41016H19.5773L21.3781 25.3164H1.62088ZM7.71807 9.2461C8.23919 9.2461 8.66338 9.67029 8.66338 10.1914C8.66338 10.7125 8.23919 11.1367 7.71807 11.1367C7.19695 11.1367 6.77276 10.7125 6.77276 10.1914C6.77276 9.67029 7.19695 9.2461 7.71807 9.2461ZM15.2806 9.2461C15.8017 9.2461 16.2259 9.67029 16.2259 10.1914C16.2259 10.7125 15.8017 11.1367 15.2806 11.1367C14.7595 11.1367 14.3353 10.7125 14.3353 10.1914C14.3353 9.67029 14.7595 9.2461 15.2806 9.2461Z" fill="black" stroke="black" stroke-width="0.5"/>
</svg>
