<svg width="27" height="25" viewBox="0 0 27 25" fill="none" xmlns="http://www.w3.org/2000/svg">
<path d="M7.97652 1.16699C3.61987 1.16699 0.708801 4.74407 0.708801 8.72542C0.708801 12.4608 2.8301 15.6893 5.42374 18.2371C8.01737 20.7848 11.1125 22.6736 13.2365 23.7696C13.3182 23.8111 13.4084 23.8327 13.5 23.8327C13.5916 23.8327 13.6818 23.8111 13.7634 23.7696C15.8875 22.6736 18.9826 20.7848 21.5762 18.2371C24.1699 15.6893 26.2912 12.4608 26.2912 8.72542C26.2912 4.74407 23.3801 1.16699 19.0235 1.16699C16.4553 1.16699 14.7492 2.47647 13.5 4.24669C12.2508 2.47647 10.5447 1.16699 7.97652 1.16699ZM7.97652 2.32983C10.4669 2.32983 11.8316 3.57238 13.0003 5.52762C13.0519 5.6142 13.125 5.68591 13.2126 5.7357C13.3002 5.7855 13.3992 5.81168 13.5 5.81168C13.6007 5.81168 13.6998 5.7855 13.7874 5.7357C13.875 5.68591 13.9481 5.6142 13.9996 5.52762C15.1684 3.57238 16.5331 2.32983 19.0235 2.32983C22.7527 2.32983 25.1283 5.29719 25.1283 8.72542C25.1283 12.0173 23.2276 14.976 20.7586 17.4013C18.3796 19.7382 15.5367 21.5158 13.5 22.5886C11.4633 21.5158 8.62039 19.7382 6.24135 17.4013C3.7724 14.976 1.87164 12.0173 1.87164 8.72542C1.87164 5.29719 4.24731 2.32983 7.97652 2.32983Z" fill="black" stroke="black" stroke-width="0.5"/>
</svg>
