<svg width="50" height="50" viewBox="0 0 50 50" fill="none" xmlns="http://www.w3.org/2000/svg">
<circle cx="25" cy="25" r="25" fill="#0F2D2F"/>
<rect width="34" height="34" transform="translate(8 8)" fill="#0F2D2F"/>
<path d="M28.2234 13.0378C28.2594 12.903 28.3217 12.7765 28.4067 12.6658C28.4916 12.555 28.5975 12.4621 28.7184 12.3923C28.8393 12.3225 28.9727 12.2771 29.1111 12.2589C29.2495 12.2407 29.3901 12.2499 29.5249 12.2861C31.4946 12.8 33.2917 13.8297 34.7311 15.2691C36.1705 16.7085 37.2002 18.5056 37.7142 20.4753C37.7503 20.6101 37.7595 20.7507 37.7413 20.8891C37.7231 21.0275 37.6778 21.161 37.608 21.2818C37.5382 21.4027 37.4452 21.5086 37.3345 21.5936C37.2237 21.6785 37.0973 21.7408 36.9624 21.7769C36.8727 21.8004 36.7803 21.8125 36.6875 21.8127C36.4534 21.8127 36.2258 21.7354 36.0401 21.5927C35.8545 21.45 35.7212 21.2501 35.6609 21.0238C35.2417 19.4159 34.4014 17.9488 33.2264 16.7738C32.0514 15.5989 30.5844 14.7585 28.9764 14.3394C28.8415 14.3034 28.7149 14.2413 28.604 14.1564C28.4931 14.0715 28.4 13.9656 28.3301 13.8447C28.2601 13.7238 28.2147 13.5903 28.1964 13.4519C28.1781 13.3134 28.1872 13.1727 28.2234 13.0378ZM27.9139 18.5894C29.7454 19.0781 30.9221 20.2548 31.4109 22.0863C31.4712 22.3126 31.6045 22.5125 31.7901 22.6552C31.9758 22.7979 32.2034 22.8752 32.4375 22.8752C32.5303 22.875 32.6227 22.8629 32.7124 22.8394C32.8473 22.8033 32.9737 22.741 33.0845 22.6561C33.1952 22.5711 33.2882 22.4652 33.358 22.3443C33.4278 22.2235 33.4731 22.09 33.4913 21.9516C33.5095 21.8132 33.5003 21.6726 33.4642 21.5378C32.7842 18.9931 31.0071 17.2161 28.4624 16.5361C28.3276 16.5001 28.187 16.491 28.0487 16.5093C27.9103 16.5276 27.777 16.573 27.6562 16.6428C27.5354 16.7127 27.4295 16.8057 27.3446 16.9165C27.2598 17.0272 27.1976 17.1536 27.1615 17.2885C27.1255 17.4233 27.1164 17.5639 27.1347 17.7022C27.153 17.8406 27.1984 17.9739 27.2683 18.0947C27.3382 18.2155 27.4311 18.3214 27.5419 18.4063C27.6527 18.4911 27.7791 18.5533 27.9139 18.5894ZM38.7966 31.253C38.5598 33.0527 37.6759 34.7046 36.3102 35.9002C34.9445 37.0959 33.1902 37.7535 31.375 37.7502C20.8297 37.7502 12.25 29.1705 12.25 18.6252C12.2468 16.8101 12.9044 15.0558 14.1 13.69C15.2956 12.3243 16.9476 11.4405 18.7472 11.2037C19.2023 11.1481 19.6631 11.2412 20.061 11.4691C20.4588 11.6969 20.7722 12.0474 20.9545 12.468L23.7595 18.7301V18.7461C23.8991 19.0681 23.9568 19.4197 23.9273 19.7694C23.8979 20.1191 23.7823 20.4561 23.5909 20.7502C23.567 20.7861 23.5417 20.8193 23.5152 20.8525L20.75 24.1303C21.7448 26.1517 23.8592 28.2475 25.9071 29.2449L29.1398 26.4944C29.1715 26.4677 29.2048 26.4428 29.2394 26.42C29.5333 26.224 29.8714 26.1043 30.2232 26.0718C30.575 26.0394 30.9293 26.0951 31.2542 26.234L31.2714 26.242L37.5282 29.0457C37.9496 29.2273 38.3009 29.5405 38.5295 29.9384C38.7582 30.3363 38.8518 30.7975 38.7966 31.253ZM36.6875 30.9874H36.6729L30.4307 28.1917L27.1967 30.9423C27.1654 30.9688 27.1325 30.9937 27.0984 31.0166C26.7927 31.2206 26.4392 31.3418 26.0725 31.3684C25.7059 31.3949 25.3386 31.3259 25.0067 31.168C22.5191 29.9661 20.0395 27.5051 18.8362 25.044C18.6768 24.7145 18.6053 24.3493 18.6286 23.984C18.6519 23.6187 18.7691 23.2656 18.969 22.9589C18.9915 22.9229 19.0168 22.8887 19.0447 22.8566L21.8125 19.5748L19.0234 13.3326C19.0229 13.3273 19.0229 13.322 19.0234 13.3167C17.7355 13.4847 16.553 14.1165 15.6973 15.0936C14.8416 16.0708 14.3715 17.3264 14.375 18.6252C14.3799 23.1324 16.1726 27.4535 19.3596 30.6406C22.5467 33.8277 26.8678 35.6203 31.375 35.6252C32.6731 35.6297 33.9283 35.1612 34.906 34.3074C35.8838 33.4536 36.5171 32.2729 36.6875 30.9861V30.9874Z" fill="white"/>
</svg>
