<svg width="50" height="50" viewBox="0 0 50 50" fill="none" xmlns="http://www.w3.org/2000/svg">
<circle cx="25" cy="25" r="25" fill="#0F2D2F"/>
<g clip-path="url(#clip0_55_9130)">
<path d="M38.222 13.6665H11.7776C11.2766 13.6665 10.7961 13.8655 10.4419 14.2197C10.0877 14.574 9.88867 15.0544 9.88867 15.5554V34.4443C9.88867 34.9452 10.0877 35.4257 10.4419 35.7799C10.7961 36.1342 11.2766 36.3332 11.7776 36.3332H38.222C38.723 36.3332 39.2034 36.1342 39.5577 35.7799C39.9119 35.4257 40.1109 34.9452 40.1109 34.4443V15.5554C40.1109 15.0544 39.9119 14.574 39.5577 14.2197C39.2034 13.8655 38.723 13.6665 38.222 13.6665ZM36.7676 34.4443H13.3453L19.9564 27.6065L18.5964 26.2937L11.7776 33.3487V16.9909L23.517 28.6737C23.8709 29.0255 24.3497 29.223 24.8487 29.223C25.3477 29.223 25.8264 29.0255 26.1803 28.6737L38.222 16.6982V33.2259L31.2709 26.2748L29.9392 27.6065L36.7676 34.4443ZM13.0148 15.5554H36.692L24.8487 27.3326L13.0148 15.5554Z" fill="white"/>
</g>
<defs>
<clipPath id="clip0_55_9130">
<rect width="34" height="34" fill="white" transform="translate(8 8)"/>
</clipPath>
</defs>
</svg>
