<svg width="17" height="26" viewBox="0 0 17 26" fill="none" xmlns="http://www.w3.org/2000/svg">
<path fill-rule="evenodd" clip-rule="evenodd" d="M7.74611 2.81159C7.19921 2.90483 6.67932 3.16841 6.28484 3.57186C4.01656 5.86255 0.125421 9.78586 0.125421 9.78586C0.0447313 9.86924 0 9.9831 0 10.1014V25.5517C0 25.7992 0.197241 26 0.448276 26H15.9497C16.2007 26 16.398 25.7992 16.398 25.5517V10.1014C16.398 9.9831 16.353 9.86924 16.2634 9.78586C16.2634 9.78586 12.3814 5.86255 10.1131 3.57186C9.70968 3.16841 9.19852 2.90483 8.64266 2.81159V0.448276C8.64266 0.200828 8.44542 0 8.19439 0C7.95232 0 7.74611 0.200828 7.74611 0.448276V2.81159ZM8.64266 3.72697V5.98448C9.47646 6.17903 10.0862 6.92138 10.0862 7.80538C10.0862 8.83821 9.25233 9.67648 8.21233 9.67648C7.1813 9.67648 6.34766 8.83821 6.34766 7.80538C6.34766 6.93304 6.93921 6.19965 7.74611 5.99255V3.72697C7.44128 3.80766 7.15446 3.97083 6.92135 4.20303L0.896552 10.2852V25.1034H15.5014V10.2852L9.47661 4.20303C9.24351 3.97083 8.95646 3.80766 8.64266 3.72697ZM8.21233 12.1106C5.37027 12.1106 3.05716 14.4237 3.05716 17.2721C3.05716 20.1204 5.37027 22.4335 8.21233 22.4335C11.0634 22.4335 13.3765 20.1204 13.3765 17.2721C13.3765 14.4237 11.0634 12.1106 8.21233 12.1106ZM8.21233 13.0072C10.5703 13.0072 12.4799 14.9186 12.4799 17.2721C12.4799 19.6255 10.5703 21.537 8.21233 21.537C5.86337 21.537 3.95371 19.6255 3.95371 17.2721C3.95371 14.9186 5.86337 13.0072 8.21233 13.0072ZM5.42418 17.663L7.12754 19.3592C7.29789 19.535 7.58474 19.535 7.75508 19.3592L11.0007 16.1119C11.18 15.9371 11.18 15.6529 11.0007 15.4781C10.8304 15.3032 10.5435 15.3032 10.3732 15.4781L7.44142 18.4089L6.0607 17.0291C5.88139 16.8543 5.60349 16.8543 5.42418 17.0291C5.25384 17.2039 5.25384 17.4881 5.42418 17.663ZM8.64266 6.93124V7.08186C8.64266 7.32931 8.44542 7.53014 8.19439 7.53014C7.95232 7.53014 7.74611 7.32931 7.74611 7.08186V6.94917C7.45025 7.11414 7.24421 7.436 7.24421 7.80538C7.24421 8.34331 7.6744 8.77993 8.21233 8.77993C8.75027 8.77993 9.18966 8.34331 9.18966 7.80538C9.18966 7.42255 8.96542 7.09083 8.64266 6.93124Z" fill="black"/>
</svg>
