<?xml version="1.0" ?><svg fill="none" height="24" viewBox="0 0 24 24" width="24" xmlns="http://www.w3.org/2000/svg"><path clip-rule="evenodd" d="M3 12.5H15V11.5H3V12.5Z" fill="black" fill-rule="evenodd"/><path clip-rule="evenodd" d="M6.14641 8.14645L2.64641 11.6465C2.45115 11.8417 2.45115 12.1583 2.64641 12.3536L6.14641 15.8536L6.85352 15.1465L3.70707 12L6.85352 8.85356L6.14641 8.14645Z" fill="black" fill-rule="evenodd"/><path clip-rule="evenodd" d="M8.5 4C8.5 3.72386 8.72386 3.5 9 3.5H21C21.2761 3.5 21.5 3.72386 21.5 4V20C21.5 20.2761 21.2761 20.5 21 20.5H9C8.72386 20.5 8.5 20.2761 8.5 20V17H9.5V19.5H20.5V4.5H9.5V7H8.5V4Z" fill="black" fill-rule="evenodd"/></svg>