<svg width="20" height="20" viewBox="0 0 20 20" fill="none" xmlns="http://www.w3.org/2000/svg">
<g clip-path="url(#clip0_55_8825)">
<path d="M10 1.6665C11.2936 1.66646 12.537 2.16781 13.4687 3.06523C14.4005 3.96264 14.9482 5.18626 14.9967 6.479L15 6.6665H15.8333C16.2538 6.66637 16.6588 6.82518 16.9671 7.11108C17.2754 7.39699 17.4643 7.78887 17.4958 8.20817L17.5 8.33317V16.6665C17.5001 17.087 17.3413 17.492 17.0554 17.8003C16.7695 18.1086 16.3776 18.2975 15.9583 18.329L15.8333 18.3332H4.16667C3.74619 18.3333 3.34119 18.1745 3.03288 17.8886C2.72456 17.6027 2.5357 17.2108 2.50417 16.7915L2.5 16.6665V8.33317C2.49987 7.91269 2.65867 7.5077 2.94458 7.19938C3.23049 6.89106 3.62237 6.70221 4.04167 6.67067L4.16667 6.6665H5C5 5.34042 5.52678 4.06865 6.46447 3.13097C7.40215 2.19329 8.67392 1.6665 10 1.6665ZM15.8333 8.33317H4.16667V16.6665H15.8333V8.33317ZM10 9.99984C10.3555 9.99995 10.7016 10.1137 10.9879 10.3245C11.2741 10.5354 11.4854 10.8322 11.591 11.1716C11.6965 11.5111 11.6908 11.8754 11.5746 12.2114C11.4583 12.5473 11.2377 12.8373 10.945 13.039L10.8333 13.1098V14.1665C10.8331 14.3789 10.7518 14.5832 10.606 14.7376C10.4602 14.8921 10.2609 14.985 10.0488 14.9975C9.8368 15.0099 9.62802 14.9409 9.46514 14.8046C9.30226 14.6683 9.19759 14.4749 9.1725 14.264L9.16667 14.1665V13.1098C8.84895 12.9264 8.60065 12.6432 8.46026 12.3043C8.31987 11.9653 8.29524 11.5895 8.3902 11.2351C8.48515 10.8808 8.69439 10.5676 8.98544 10.3443C9.2765 10.1209 9.63312 9.99985 10 9.99984ZM10 3.33317C9.11594 3.33317 8.2681 3.68436 7.64298 4.30948C7.01786 4.9346 6.66667 5.78245 6.66667 6.6665H13.3333C13.3333 5.78245 12.9821 4.9346 12.357 4.30948C11.7319 3.68436 10.8841 3.33317 10 3.33317Z" fill="black"/>
</g>
<defs>
<clipPath id="clip0_55_8825">
<rect width="20" height="20" fill="white"/>
</clipPath>
</defs>
</svg>
