<svg width="89" height="24" viewBox="0 0 89 24" fill="none" xmlns="http://www.w3.org/2000/svg">
<path d="M28.6097 5.25635C28.4281 5.25635 28.2738 5.38819 28.2454 5.56771L26.1433 18.8988C26.1356 18.9475 26.1386 18.9972 26.1521 19.0447C26.1655 19.0921 26.1891 19.136 26.2211 19.1735C26.2531 19.211 26.2929 19.241 26.3377 19.2617C26.3824 19.2823 26.4311 19.293 26.4804 19.293H28.9734C29.1547 19.293 29.3092 19.1609 29.3376 18.9816L29.9551 15.0669C29.9833 14.8876 30.1378 14.7555 30.3194 14.7555H32.5859C35.2341 14.7555 37.4822 12.8233 37.8928 10.205C38.3068 7.56456 36.244 5.26208 33.3204 5.25635H28.6097ZM31.033 8.23235H32.8465C34.3394 8.23235 34.8256 9.11328 34.6719 10.0875C34.5182 11.0638 33.7631 11.7829 32.3189 11.7829H30.4731L31.033 8.23235ZM42.9631 9.13855C42.3336 9.14089 41.6093 9.26987 40.7961 9.60858C38.9308 10.3861 38.0351 11.9929 37.6547 13.1643C37.6547 13.1643 36.4439 16.7383 39.1794 18.7018C39.1794 18.7018 41.7164 20.5921 44.5723 18.5853L44.523 18.8988C44.5154 18.9474 44.5184 18.9971 44.5318 19.0445C44.5452 19.0919 44.5687 19.1359 44.6007 19.1733C44.6326 19.2108 44.6724 19.2408 44.7171 19.2615C44.7618 19.2822 44.8104 19.2929 44.8597 19.293H47.2262C47.4078 19.293 47.5621 19.1609 47.5905 18.9816L49.03 9.85246C49.0378 9.80377 49.0348 9.75398 49.0215 9.70653C49.0081 9.65907 48.9846 9.61508 48.9526 9.57757C48.9206 9.54005 48.8809 9.50992 48.8362 9.48923C48.7914 9.46854 48.7427 9.45779 48.6934 9.45772H46.3268C46.1452 9.45772 45.9907 9.58982 45.9626 9.76908L45.8852 10.2605C45.8852 10.2605 44.8518 9.13151 42.9631 9.13855ZM43.0405 12.0221C43.3123 12.0221 43.5608 12.0596 43.7839 12.1312C44.805 12.459 45.3839 13.44 45.2164 14.5033C45.0097 15.8125 43.936 16.7766 42.559 16.7766C42.2875 16.7766 42.0389 16.7393 41.8157 16.6677C40.7948 16.3399 40.2122 15.3589 40.3798 14.2956C40.5864 12.9864 41.6635 12.0221 43.0405 12.0221Z" fill="#003087"/>
<path d="M62.6888 5.25635C62.5072 5.25635 62.3529 5.38819 62.3245 5.56771L60.2224 18.8988C60.2147 18.9475 60.2177 18.9972 60.2312 19.0447C60.2446 19.0921 60.2682 19.136 60.3002 19.1735C60.3322 19.211 60.372 19.241 60.4168 19.2617C60.4615 19.2823 60.5102 19.293 60.5595 19.293H63.0525C63.2338 19.293 63.3883 19.1609 63.4167 18.9816L64.0342 15.0669C64.0624 14.8876 64.2169 14.7555 64.3985 14.7555H66.665C69.3132 14.7555 71.561 12.8233 71.9714 10.205C72.3857 7.56456 70.3231 5.26208 67.3995 5.25635H62.6888ZM65.1121 8.23235H66.9256C68.4185 8.23235 68.9047 9.11328 68.751 10.0875C68.5973 11.0638 67.8425 11.7829 66.398 11.7829H64.5522L65.1121 8.23235ZM77.042 9.13855C76.4125 9.14089 75.6881 9.26987 74.875 9.60858C73.0097 10.3861 72.1139 11.9929 71.7335 13.1643C71.7335 13.1643 70.5232 16.7383 73.2588 18.7018C73.2588 18.7018 75.7952 20.5921 78.6514 18.5853L78.6021 18.8988C78.5945 18.9475 78.5975 18.9972 78.6109 19.0447C78.6244 19.0921 78.6479 19.136 78.6799 19.1735C78.712 19.211 78.7518 19.241 78.7965 19.2617C78.8413 19.2823 78.89 19.293 78.9393 19.293H81.3056C81.4872 19.293 81.6415 19.1609 81.6699 18.9816L83.1099 9.85246C83.1176 9.80372 83.1147 9.75389 83.1013 9.7064C83.0879 9.65891 83.0644 9.61489 83.0324 9.57737C83.0003 9.53985 82.9605 9.50972 82.9157 9.48907C82.8709 9.46841 82.8221 9.45772 82.7728 9.45772H80.4062C80.2246 9.45772 80.0701 9.58982 80.0419 9.76908L79.9646 10.2605C79.9646 10.2605 78.9307 9.13151 77.042 9.13855ZM77.1193 12.0221C77.3911 12.0221 77.6397 12.0596 77.8627 12.1312C78.8838 12.459 79.4627 13.44 79.2952 14.5033C79.0886 15.8125 78.0149 16.7766 76.6378 16.7766C76.3664 16.7766 76.1178 16.7393 75.8945 16.6677C74.8737 16.3399 74.2911 15.3589 74.4586 14.2956C74.6652 12.9864 75.7423 12.0221 77.1193 12.0221Z" fill="#0070E0"/>
<path d="M50.1526 9.45583C49.965 9.45583 49.8316 9.63899 49.8889 9.81747L52.4835 17.8687L50.1375 21.6629C50.0236 21.8471 50.156 22.085 50.3725 22.085H53.1453C53.2246 22.0849 53.3025 22.0644 53.3716 22.0254C53.4406 21.9864 53.4984 21.9303 53.5395 21.8625L60.7857 9.87531C60.8969 9.6911 60.764 9.45557 60.5488 9.45557H57.7763C57.6962 9.45563 57.6176 9.47655 57.548 9.51625C57.4785 9.55595 57.4205 9.61307 57.3797 9.68198L54.5275 14.4975L53.0796 9.71768C53.0325 9.56213 52.8889 9.45557 52.7266 9.45557L50.1526 9.45583Z" fill="#003087"/>
<path d="M85.7987 5.25635C85.6174 5.25635 85.4629 5.38845 85.4345 5.56771L83.3318 18.8982C83.3241 18.947 83.3271 18.9968 83.3405 19.0443C83.3539 19.0918 83.3774 19.1358 83.4094 19.1733C83.4415 19.2109 83.4813 19.241 83.5261 19.2616C83.5709 19.2823 83.6196 19.293 83.669 19.293H86.1619C86.3433 19.293 86.4978 19.1609 86.5262 18.9816L88.6283 5.65056C88.6359 5.60191 88.633 5.55218 88.6196 5.50479C88.6062 5.4574 88.5827 5.41347 88.5507 5.37602C88.5187 5.33857 88.479 5.30848 88.4343 5.28782C88.3896 5.26717 88.3409 5.25643 88.2917 5.25635H85.7987Z" fill="#0070E0"/>
<path d="M7.82574 5.25635C7.66515 5.25648 7.50988 5.31388 7.38781 5.41823C7.26575 5.52258 7.18488 5.66704 7.15977 5.82565L6.05322 12.8438C6.10481 12.5161 6.38724 12.2745 6.71918 12.2745H9.96173C13.2251 12.2745 15.9943 9.89389 16.5002 6.66775C16.5379 6.42689 16.5592 6.18377 16.5641 5.94003C15.7348 5.50517 14.7605 5.25635 13.6931 5.25635H7.82574Z" fill="#001C64"/>
<path d="M16.5645 5.93408C16.5597 6.17782 16.5383 6.42094 16.5007 6.6618C15.9947 9.88794 13.2253 12.2686 9.96216 12.2686H6.71961C6.38793 12.2686 6.10524 12.5099 6.05365 12.8379L5.03619 19.287L4.39889 23.3329C4.38645 23.411 4.39111 23.491 4.41257 23.5672C4.43402 23.6433 4.47176 23.714 4.52315 23.7742C4.57455 23.8343 4.6384 23.8827 4.71028 23.9158C4.78217 23.9489 4.86039 23.966 4.93954 23.966H8.45905C8.61964 23.9659 8.77491 23.9085 8.89698 23.8041C9.01905 23.6998 9.0999 23.5553 9.12501 23.3967L10.052 17.5169C10.0772 17.3582 10.1581 17.2136 10.2803 17.1093C10.4025 17.0049 10.5579 16.9476 10.7185 16.9476H12.7907C16.0541 16.9476 18.8232 14.5669 19.3292 11.3408C19.6885 9.05105 18.5353 6.96743 16.5645 5.93408Z" fill="#0070E0"/>
<path d="M3.82767 0.572754C3.49599 0.572754 3.2133 0.814024 3.16171 1.14154L0.399864 18.6547C0.347493 18.9872 0.604403 19.2878 0.941034 19.2878H5.03663L6.05356 12.8387L7.1601 5.8205C7.18521 5.66189 7.26608 5.51743 7.38815 5.41308C7.51021 5.30873 7.66549 5.25133 7.82608 5.2512H13.6934C14.7611 5.2512 15.7351 5.50028 16.5644 5.93488C16.6212 2.9977 14.1976 0.572754 10.8654 0.572754H3.82767Z" fill="#003087"/>
</svg>
