<svg width="76" height="21" viewBox="0 0 76 21" fill="none" xmlns="http://www.w3.org/2000/svg">
<path d="M24.1239 4.05469C23.9686 4.05469 23.8367 4.1674 23.8124 4.32088L22.0152 15.7182C22.0087 15.7599 22.0113 15.8024 22.0228 15.843C22.0342 15.8835 22.0544 15.9211 22.0818 15.9531C22.1092 15.9852 22.1432 16.0109 22.1814 16.0285C22.2197 16.0461 22.2614 16.0553 22.3035 16.0553H24.4348C24.5899 16.0553 24.722 15.9423 24.7462 15.7891L25.2742 12.4422C25.2982 12.2889 25.4303 12.176 25.5856 12.176H27.5234C29.7875 12.176 31.7094 10.524 32.0605 8.28551C32.4144 6.02809 30.6509 4.05959 28.1513 4.05469H24.1239ZM26.1957 6.59902H27.7461C29.0225 6.59902 29.4382 7.35216 29.3068 8.18505C29.1753 9.01972 28.5298 9.63453 27.295 9.63453H25.717L26.1957 6.59902ZM36.3953 7.37377C35.8571 7.37577 35.2379 7.48604 34.5427 7.77562C32.9479 8.44033 32.1821 9.81407 31.8569 10.8156C31.8569 10.8156 30.8217 13.8711 33.1604 15.5498C33.1604 15.5498 35.3294 17.1659 37.7711 15.4503L37.729 15.7182C37.7224 15.7598 37.725 15.8024 37.7365 15.8429C37.7479 15.8834 37.768 15.9209 37.7953 15.953C37.8227 15.985 37.8566 16.0107 37.8948 16.0284C37.9331 16.046 37.9747 16.0552 38.0168 16.0553H40.0401C40.1953 16.0553 40.3272 15.9423 40.3515 15.7891L41.5822 7.98412C41.5888 7.94249 41.5863 7.89993 41.5749 7.85936C41.5635 7.81879 41.5434 7.78117 41.516 7.7491C41.4887 7.71703 41.4547 7.69127 41.4165 7.67358C41.3782 7.65589 41.3366 7.6467 41.2944 7.64664H39.2711C39.1159 7.64664 38.9838 7.75958 38.9597 7.91284L38.8935 8.33296C38.8935 8.33296 38.0101 7.36775 36.3953 7.37377ZM36.4615 9.83902C36.6938 9.83902 36.9063 9.8711 37.097 9.93235C37.97 10.2126 38.465 11.0513 38.3217 11.9603C38.1451 13.0797 37.2271 13.9039 36.0498 13.9039C35.8177 13.9039 35.6052 13.872 35.4143 13.8108C34.5415 13.5305 34.0435 12.6919 34.1867 11.7828C34.3633 10.6634 35.2842 9.83902 36.4615 9.83902Z" fill="#003087"/>
<path d="M53.2606 4.05469C53.1053 4.05469 52.9734 4.1674 52.9492 4.32088L51.152 15.7182C51.1454 15.7599 51.148 15.8024 51.1595 15.843C51.171 15.8835 51.1911 15.9211 51.2185 15.9531C51.2459 15.9852 51.2799 16.0109 51.3182 16.0285C51.3564 16.0461 51.3981 16.0553 51.4402 16.0553H53.5715C53.7266 16.0553 53.8587 15.9423 53.883 15.7891L54.4109 12.4422C54.435 12.2889 54.5671 12.176 54.7223 12.176H56.6601C58.9242 12.176 60.8459 10.524 61.1967 8.28551C61.5509 6.02809 59.7876 4.05959 57.288 4.05469H53.2606ZM55.3324 6.59902H56.8828C58.1592 6.59902 58.5749 7.35216 58.4435 8.18505C58.312 9.01972 57.6667 9.63453 56.4318 9.63453H54.8537L55.3324 6.59902ZM65.5318 7.37377C64.9936 7.37577 64.3744 7.48604 63.6791 7.77562C62.0844 8.44033 61.3186 9.81407 60.9934 10.8156C60.9934 10.8156 59.9587 13.8711 62.2974 15.5498C62.2974 15.5498 64.4659 17.1659 66.9078 15.4503L66.8657 15.7182C66.8592 15.7599 66.8617 15.8024 66.8732 15.843C66.8847 15.8835 66.9048 15.9211 66.9322 15.9531C66.9596 15.9852 66.9936 16.0109 67.0319 16.0285C67.0702 16.0461 67.1118 16.0553 67.1539 16.0553H69.177C69.3323 16.0553 69.4642 15.9423 69.4884 15.7891L70.7196 7.98412C70.7262 7.94245 70.7237 7.89985 70.7123 7.85925C70.7008 7.81865 70.6807 7.78101 70.6533 7.74893C70.6259 7.71686 70.5919 7.6911 70.5535 7.67344C70.5152 7.65578 70.4735 7.64664 70.4314 7.64664H68.4081C68.2528 7.64664 68.1207 7.75958 68.0966 7.91284L68.0305 8.33296C68.0305 8.33296 67.1466 7.36775 65.5318 7.37377ZM65.598 9.83902C65.8303 9.83902 66.0428 9.8711 66.2335 9.93235C67.1065 10.2126 67.6015 11.0513 67.4582 11.9603C67.2816 13.0797 66.3636 13.9039 65.1863 13.9039C64.9542 13.9039 64.7417 13.872 64.5508 13.8108C63.678 13.5305 63.18 12.6919 63.3232 11.7828C63.4998 10.6634 64.4207 9.83902 65.598 9.83902Z" fill="#0070E0"/>
<path d="M42.5416 7.64475C42.3812 7.64475 42.2672 7.80135 42.3162 7.95394L44.5344 14.8374L42.5287 18.0811C42.4313 18.2386 42.5445 18.442 42.7296 18.442H45.1002C45.168 18.4419 45.2346 18.4244 45.2937 18.3911C45.3527 18.3578 45.4021 18.3098 45.4372 18.2518L51.6323 8.00339C51.7274 7.8459 51.6138 7.64453 51.4298 7.64453H49.0595C48.991 7.64459 48.9237 7.66247 48.8643 7.69641C48.8049 7.73035 48.7553 7.77919 48.7204 7.83811L46.2819 11.9551L45.0441 7.86862C45.0037 7.73564 44.881 7.64453 44.7422 7.64453L42.5416 7.64475Z" fill="#003087"/>
<path d="M73.0189 4.05469C72.8639 4.05469 72.7318 4.16763 72.7075 4.32088L70.9098 15.7178C70.9032 15.7595 70.9058 15.8021 70.9172 15.8427C70.9287 15.8833 70.9488 15.9209 70.9762 15.953C71.0036 15.9851 71.0376 16.0108 71.0759 16.0285C71.1142 16.0461 71.1559 16.0553 71.1981 16.0553H73.3294C73.4845 16.0553 73.6166 15.9423 73.6408 15.7891L75.438 4.39172C75.4446 4.35012 75.442 4.30761 75.4306 4.26709C75.4191 4.22658 75.399 4.18902 75.3717 4.157C75.3443 4.12498 75.3104 4.09926 75.2722 4.0816C75.2339 4.06394 75.1924 4.05476 75.1502 4.05469H73.0189Z" fill="#0070E0"/>
<path d="M6.35525 4.05469C6.21796 4.0548 6.08521 4.10387 5.98085 4.19309C5.87649 4.2823 5.80735 4.4058 5.78588 4.54141L4.83984 10.5416C4.88395 10.2614 5.12541 10.0549 5.4092 10.0549H8.18142C10.9714 10.0549 13.3389 8.01954 13.7715 5.26136C13.8037 5.05544 13.8219 4.84758 13.8261 4.6392C13.117 4.26742 12.2842 4.05469 11.3715 4.05469H6.35525Z" fill="#001C64"/>
<path d="M13.8248 4.63477C13.8206 4.84315 13.8024 5.05101 13.7702 5.25693C13.3376 8.0151 10.9699 10.0504 8.18009 10.0504H5.40788C5.12431 10.0504 4.88262 10.2567 4.83852 10.5372L3.96864 16.0508L3.42378 19.5098C3.41315 19.5766 3.41713 19.645 3.43548 19.7101C3.45382 19.7753 3.48608 19.8356 3.53002 19.8871C3.57396 19.9386 3.62855 19.9799 3.69001 20.0082C3.75147 20.0365 3.81834 20.0511 3.88601 20.0511H6.89501C7.0323 20.051 7.16505 20.0019 7.26941 19.9127C7.37377 19.8235 7.4429 19.7 7.46437 19.5644L8.25693 14.5374C8.27841 14.4017 8.34761 14.2782 8.45206 14.189C8.55652 14.0997 8.68938 14.0507 8.82676 14.0507H10.5983C13.3884 14.0507 15.7558 12.0154 16.1884 9.2572C16.4956 7.29961 15.5097 5.51822 13.8248 4.63477Z" fill="#0070E0"/>
<path d="M2.9364 0.0507812C2.65283 0.0507812 2.41115 0.257054 2.36704 0.53706L0.00581134 15.5099C-0.0389628 15.7941 0.180681 16.0512 0.468484 16.0512H3.97L4.83942 10.5375L5.78546 4.53733C5.80693 4.40172 5.87607 4.27822 5.98043 4.189C6.08479 4.09979 6.21754 4.05072 6.35484 4.05061H11.3711C12.284 4.05061 13.1166 4.26356 13.8257 4.63512C13.8742 2.12398 11.8021 0.0507812 8.95329 0.0507812H2.9364Z" fill="#003087"/>
</svg>
