<svg width="30" height="30" viewBox="0 0 30 30" fill="none" xmlns="http://www.w3.org/2000/svg">
<path d="M16.8943 10.4342L17.0406 11.1669L17.6622 10.7522L23.8785 6.60476L19.731 12.821L19.3163 13.4426L20.0491 13.5889L27.3773 15.0518L20.0491 16.5146L19.3163 16.6609L19.731 17.2825L23.8785 23.4988L17.6622 19.3513L17.0406 18.9366L16.8943 19.6694L15.4315 26.9976L13.9686 19.6694L13.8223 18.9366L13.2007 19.3513L6.98446 23.4988L11.1319 17.2825L11.5466 16.6609L10.8139 16.5146L3.4856 15.0518L10.8139 13.5889L11.5466 13.4426L11.1319 12.821L6.98446 6.60476L13.2007 10.7522L13.8223 11.1669L13.9686 10.4342L15.4315 3.1059L16.8943 10.4342Z" stroke="black"/>
</svg>
