<svg width="118" height="17" viewBox="0 0 118 17" fill="none" xmlns="http://www.w3.org/2000/svg">
<path d="M22.6245 13.7324L19.3198 5.05469H20.5854L22.6948 10.5977C22.8862 11.082 23.0659 11.627 23.2339 12.2324C23.4175 11.623 23.6011 11.0742 23.7847 10.5859L25.8882 5.05469H27.1128L23.8491 13.7324H22.6245ZM29.6265 13.8789C28.7632 13.8789 28.062 13.5938 27.5229 13.0234C26.9839 12.4531 26.7144 11.7129 26.7144 10.8027C26.7144 9.88477 26.978 9.13867 27.5054 8.56445C28.0366 7.98633 28.728 7.69727 29.5796 7.69727C30.4155 7.69727 31.0835 7.96094 31.5835 8.48828C32.0874 9.01562 32.3394 9.71484 32.3394 10.5859V11.0078L27.8042 11.0195C27.8472 11.6406 28.0269 12.1172 28.3433 12.4492C28.6597 12.7773 29.0952 12.9414 29.6499 12.9414C30.5483 12.9414 31.0972 12.5977 31.2964 11.9102H32.3511C32.2065 12.5391 31.8979 13.0254 31.4253 13.3691C30.9526 13.709 30.353 13.8789 29.6265 13.8789ZM29.5796 8.64648C29.0874 8.64648 28.6909 8.78711 28.3901 9.06836C28.0894 9.34961 27.9019 9.74805 27.8276 10.2637H31.2144C31.2144 9.77539 31.0659 9.38477 30.769 9.0918C30.4722 8.79492 30.0757 8.64648 29.5796 8.64648ZM36.9624 7.81445V8.8457H36.4585C35.9233 8.8457 35.5015 9.00195 35.1929 9.31445C34.8843 9.62695 34.73 10.0645 34.73 10.627V13.7324H33.5991V7.87891H34.6538L34.73 8.76367C34.8511 8.45117 35.0542 8.20312 35.3394 8.01953C35.6245 7.83594 35.9644 7.74414 36.3589 7.74414C36.5308 7.74414 36.7319 7.76758 36.9624 7.81445ZM39.0952 6.25586C38.9507 6.40039 38.7749 6.47266 38.5679 6.47266C38.3608 6.47266 38.1851 6.40039 38.0405 6.25586C37.896 6.10742 37.8237 5.93164 37.8237 5.72852C37.8237 5.51758 37.896 5.3418 38.0405 5.20117C38.1851 5.05664 38.3608 4.98438 38.5679 4.98438C38.7749 4.98438 38.9507 5.05664 39.0952 5.20117C39.2397 5.3418 39.312 5.51758 39.312 5.72852C39.312 5.93164 39.2397 6.10742 39.0952 6.25586ZM38.0171 13.7324V7.86719H39.1479V13.7324H38.0171ZM44.7554 13.7324V8.81055H42.1538V13.7324H41.0229V8.81055H40.1616V7.86719H41.0229V6.92969C41.0229 6.24219 41.187 5.73242 41.5151 5.40039C41.8433 5.06836 42.2788 4.90234 42.8218 4.90234C43.0952 4.90234 43.3276 4.91797 43.519 4.94922V5.92188H43.0151C42.6909 5.92188 42.4663 6.00391 42.3413 6.16797C42.2163 6.33203 42.1538 6.58594 42.1538 6.92969V7.86719H45.8862V13.7324H44.7554ZM45.3179 6.42578C45.1147 6.42578 44.9448 6.35742 44.8081 6.2207C44.6714 6.08398 44.603 5.91211 44.603 5.70508C44.603 5.49805 44.6714 5.32617 44.8081 5.18945C44.9448 5.05273 45.1147 4.98438 45.3179 4.98438C45.5171 4.98438 45.6851 5.05469 45.8218 5.19531C45.9585 5.33203 46.0269 5.50195 46.0269 5.70508C46.0269 5.9082 45.9585 6.08008 45.8218 6.2207C45.6851 6.35742 45.5171 6.42578 45.3179 6.42578ZM50.0171 13.8789C49.1538 13.8789 48.4526 13.5938 47.9136 13.0234C47.3745 12.4531 47.105 11.7129 47.105 10.8027C47.105 9.88477 47.3687 9.13867 47.896 8.56445C48.4272 7.98633 49.1187 7.69727 49.9702 7.69727C50.8062 7.69727 51.4741 7.96094 51.9741 8.48828C52.478 9.01562 52.73 9.71484 52.73 10.5859V11.0078L48.1948 11.0195C48.2378 11.6406 48.4175 12.1172 48.7339 12.4492C49.0503 12.7773 49.4858 12.9414 50.0405 12.9414C50.939 12.9414 51.4878 12.5977 51.687 11.9102H52.7417C52.5972 12.5391 52.2886 13.0254 51.8159 13.3691C51.3433 13.709 50.7437 13.8789 50.0171 13.8789ZM49.9702 8.64648C49.478 8.64648 49.0815 8.78711 48.7808 9.06836C48.48 9.34961 48.2925 9.74805 48.2183 10.2637H51.605C51.605 9.77539 51.4565 9.38477 51.1597 9.0918C50.8628 8.79492 50.4663 8.64648 49.9702 8.64648ZM56.3452 13.8789C55.5054 13.8789 54.8394 13.5957 54.3472 13.0293C53.855 12.4629 53.6089 11.7246 53.6089 10.8145C53.6089 9.89648 53.8589 9.14844 54.3589 8.57031C54.8589 7.98828 55.5366 7.69727 56.3921 7.69727C56.8452 7.69727 57.2495 7.79297 57.605 7.98438C57.9644 8.17578 58.2437 8.45117 58.4429 8.81055V4.90234H59.562V13.7324H58.5542L58.4546 12.666C58.2632 13.0605 57.9819 13.3613 57.6108 13.5684C57.2437 13.7754 56.8218 13.8789 56.3452 13.8789ZM56.5737 12.8535C57.144 12.8535 57.5952 12.6641 57.9272 12.2852C58.2632 11.9023 58.4312 11.4004 58.4312 10.7793C58.4312 10.1699 58.2632 9.67383 57.9272 9.29102C57.5952 8.9082 57.144 8.7168 56.5737 8.7168C56.0073 8.7168 55.5601 8.9082 55.2319 9.29102C54.9077 9.66992 54.7456 10.166 54.7456 10.7793C54.7456 11.3965 54.9077 11.8965 55.2319 12.2793C55.5601 12.6621 56.0073 12.8535 56.5737 12.8535ZM68.2573 13.8672C67.4409 13.8672 66.7202 13.6836 66.0952 13.3164C65.4741 12.9453 64.9937 12.4219 64.6538 11.7461C64.314 11.0703 64.144 10.2891 64.144 9.40234C64.144 8.06641 64.5288 6.98438 65.2983 6.15625C66.0718 5.32812 67.0796 4.91406 68.3218 4.91406C69.3022 4.91406 70.1362 5.18164 70.8237 5.7168C71.5151 6.25195 71.9409 6.96289 72.1011 7.84961H70.8413C70.6812 7.28711 70.3726 6.8457 69.9155 6.52539C69.4624 6.20117 68.9194 6.03906 68.2866 6.03906C67.4116 6.03906 66.7085 6.3457 66.1772 6.95898C65.646 7.56836 65.3804 8.37891 65.3804 9.39062C65.3804 10.4023 65.644 11.2129 66.1714 11.8223C66.7026 12.4316 67.4077 12.7363 68.2866 12.7363C68.9194 12.7363 69.4702 12.5781 69.939 12.2617C70.4116 11.9453 70.728 11.5195 70.8882 10.9844H72.1362C71.9526 11.8477 71.5034 12.5449 70.7886 13.0762C70.0776 13.6035 69.2339 13.8672 68.2573 13.8672ZM77.439 7.86719H78.5581V13.7324H77.5503L77.4272 12.8418C77.2593 13.1504 76.9937 13.4004 76.6304 13.5918C76.271 13.7832 75.8784 13.8789 75.4526 13.8789C74.7769 13.8789 74.2515 13.668 73.8765 13.2461C73.5015 12.8203 73.314 12.2422 73.314 11.5117V7.86719H74.439V11.1426C74.439 12.3027 74.9077 12.8828 75.8452 12.8828C76.3608 12.8828 76.7554 12.7207 77.0288 12.3965C77.3022 12.0684 77.439 11.5898 77.439 10.9609V7.86719ZM79.5952 12.0273H80.6792C80.6792 12.3281 80.7847 12.5645 80.9956 12.7363C81.2104 12.9043 81.5034 12.9883 81.8745 12.9883C82.269 12.9883 82.5757 12.9121 82.7944 12.7598C83.0132 12.6074 83.1226 12.3965 83.1226 12.127C83.1226 11.9199 83.062 11.7559 82.9409 11.6348C82.8237 11.5098 82.6167 11.4082 82.3198 11.3301L81.2886 11.0898C80.7651 10.9648 80.3784 10.7695 80.1284 10.5039C79.8784 10.2383 79.7534 9.89062 79.7534 9.46094C79.7534 8.92578 79.9585 8.49805 80.3687 8.17773C80.7788 7.85742 81.3101 7.69727 81.9624 7.69727C82.603 7.69727 83.1167 7.86328 83.5034 8.19531C83.894 8.52734 84.0952 8.97266 84.1069 9.53125H83.0288C83.0171 9.23438 82.9155 9 82.7241 8.82812C82.5327 8.65625 82.2671 8.57031 81.9272 8.57031C81.5757 8.57031 81.3022 8.64648 81.1069 8.79883C80.9155 8.94727 80.8198 9.15625 80.8198 9.42578C80.8198 9.8125 81.1089 10.0801 81.687 10.2285L82.7183 10.4805C83.2261 10.6016 83.6011 10.7871 83.8433 11.0371C84.0854 11.2832 84.2065 11.6211 84.2065 12.0508C84.2065 12.6055 83.9897 13.0488 83.5562 13.3809C83.1226 13.7129 82.5542 13.8789 81.8511 13.8789C81.1636 13.8789 80.6147 13.7109 80.2046 13.375C79.7983 13.0352 79.5952 12.5859 79.5952 12.0273ZM87.1128 13.7324H85.9819V8.81055H84.8335V7.86719H85.9819V6.02734H87.1128V7.86719H88.2612V8.81055H87.1128V13.7324ZM89.6968 13.0117C89.1226 12.4336 88.8354 11.6934 88.8354 10.791C88.8354 9.88867 89.1226 9.15039 89.6968 8.57617C90.2749 7.99805 91.0073 7.70898 91.894 7.70898C92.7729 7.70898 93.4995 7.99805 94.0737 8.57617C94.6519 9.15039 94.9409 9.88867 94.9409 10.791C94.9409 11.6934 94.6519 12.4336 94.0737 13.0117C93.4995 13.5898 92.7729 13.8789 91.894 13.8789C91.0073 13.8789 90.2749 13.5898 89.6968 13.0117ZM90.5054 9.29688C90.1499 9.67969 89.9722 10.1777 89.9722 10.791C89.9722 11.4043 90.1499 11.9043 90.5054 12.291C90.8608 12.6777 91.3237 12.8711 91.894 12.8711C92.4604 12.8711 92.9214 12.6777 93.2769 12.291C93.6362 11.9043 93.8159 11.4043 93.8159 10.791C93.8159 10.1777 93.6362 9.67969 93.2769 9.29688C92.9214 8.91016 92.4604 8.7168 91.894 8.7168C91.3237 8.7168 90.8608 8.91016 90.5054 9.29688ZM97.3198 13.7324H96.189V7.86719H97.1968L97.3081 8.63477C97.4644 8.34961 97.6948 8.12305 97.9995 7.95508C98.3042 7.7832 98.6577 7.69727 99.0601 7.69727C99.5093 7.69727 99.8921 7.80273 100.208 8.01367C100.529 8.2207 100.765 8.51172 100.917 8.88672C101.054 8.51953 101.291 8.23047 101.626 8.01953C101.966 7.80469 102.363 7.69727 102.816 7.69727C103.484 7.69727 104.009 7.89453 104.392 8.28906C104.779 8.67969 104.972 9.21484 104.972 9.89453V13.7324H103.871V10.1699C103.871 9.71289 103.753 9.35742 103.519 9.10352C103.285 8.8457 102.966 8.7168 102.564 8.7168C102.138 8.7168 101.794 8.85742 101.533 9.13867C101.275 9.41602 101.146 9.78711 101.146 10.252V13.7324H100.033V10.1582C100.033 9.70117 99.9155 9.34961 99.6812 9.10352C99.4507 8.85352 99.1343 8.72852 98.7319 8.72852C98.3062 8.72852 97.9644 8.86719 97.7065 9.14453C97.4487 9.41797 97.3198 9.78711 97.3198 10.252V13.7324ZM109.068 13.8789C108.205 13.8789 107.503 13.5938 106.964 13.0234C106.425 12.4531 106.156 11.7129 106.156 10.8027C106.156 9.88477 106.419 9.13867 106.947 8.56445C107.478 7.98633 108.169 7.69727 109.021 7.69727C109.857 7.69727 110.525 7.96094 111.025 8.48828C111.529 9.01562 111.781 9.71484 111.781 10.5859V11.0078L107.246 11.0195C107.289 11.6406 107.468 12.1172 107.785 12.4492C108.101 12.7773 108.537 12.9414 109.091 12.9414C109.99 12.9414 110.539 12.5977 110.738 11.9102H111.792C111.648 12.5391 111.339 13.0254 110.867 13.3691C110.394 13.709 109.794 13.8789 109.068 13.8789ZM109.021 8.64648C108.529 8.64648 108.132 8.78711 107.832 9.06836C107.531 9.34961 107.343 9.74805 107.269 10.2637H110.656C110.656 9.77539 110.507 9.38477 110.21 9.0918C109.914 8.79492 109.517 8.64648 109.021 8.64648ZM116.404 7.81445V8.8457H115.9C115.365 8.8457 114.943 9.00195 114.634 9.31445C114.326 9.62695 114.171 10.0645 114.171 10.627V13.7324H113.041V7.87891H114.095L114.171 8.76367C114.292 8.45117 114.496 8.20312 114.781 8.01953C115.066 7.83594 115.406 7.74414 115.8 7.74414C115.972 7.74414 116.173 7.76758 116.404 7.81445Z" fill="#65B5AF"/>
<path fill-rule="evenodd" clip-rule="evenodd" d="M6.67536 2.06909C6.79214 1.93491 6.96114 1.85742 7.13912 1.85742C7.3171 1.85742 7.4861 1.9349 7.60288 2.06909L8.37823 2.96348C8.51466 3.12069 8.69039 3.23745 8.88858 3.30147C9.08621 3.36548 9.29732 3.37446 9.49999 3.32786L10.6532 3.06005C10.8267 3.01962 11.0086 3.05668 11.1523 3.16167C11.2966 3.2661 11.3881 3.42836 11.4033 3.6052L11.5049 4.78423C11.5229 4.9914 11.597 5.18903 11.7188 5.35747C11.8412 5.52534 12.0063 5.65727 12.1983 5.73812L13.2886 6.19906C13.4525 6.26812 13.5783 6.40567 13.6333 6.57467C13.6883 6.74366 13.667 6.92893 13.5755 7.08108L12.9641 8.09449C12.8563 8.27303 12.799 8.47684 12.799 8.68457C12.799 8.8923 12.8557 9.09611 12.963 9.27409L13.5744 10.2875C13.6659 10.4402 13.6872 10.6249 13.6322 10.7939C13.5772 10.9635 13.4514 11.1005 13.2875 11.1695L12.1972 11.6305C12.0057 11.7113 11.8401 11.8433 11.7177 12.0111C11.5959 12.179 11.5218 12.3772 11.5038 12.5844L11.4022 13.7634C11.387 13.9408 11.2955 14.1031 11.1512 14.2069C11.0075 14.3113 10.825 14.3484 10.6521 14.3085L9.49887 14.0407C9.29676 13.9941 9.08509 14.0031 8.88746 14.0671C8.68983 14.1317 8.51353 14.2485 8.3771 14.4051L7.60176 15.2995C7.4861 15.4342 7.3171 15.5117 7.13912 15.5117C6.96114 15.5117 6.79214 15.4342 6.67536 15.3L5.90002 14.4057C5.76358 14.2485 5.58785 14.1317 5.38966 14.0677C5.19203 14.0037 4.98092 13.9947 4.77825 14.0413L3.62505 14.3091C3.45157 14.3495 3.26965 14.3125 3.12592 14.2075C2.98163 14.103 2.89012 13.9408 2.87496 13.7639L2.77334 12.5849C2.75537 12.3777 2.68126 12.1801 2.55942 12.0117C2.43703 11.8438 2.27197 11.7119 2.07996 11.631L0.98964 11.1701C0.825702 11.101 0.699939 10.9635 0.644919 10.7945C0.591021 10.6249 0.612356 10.4402 0.703872 10.2875L1.31528 9.27409C1.42196 9.09611 1.47922 8.89232 1.47922 8.68457C1.47922 8.47682 1.42251 8.27303 1.31528 8.09505L0.703872 7.08164C0.612356 6.92893 0.591021 6.74421 0.646043 6.57523C0.701065 6.40567 0.826826 6.26868 0.990764 6.19962L2.08108 5.73868C2.27253 5.65783 2.43816 5.52589 2.56055 5.35803C2.68238 5.19015 2.75649 4.99196 2.77446 4.78479L2.87608 3.60576C2.89124 3.42834 2.98276 3.26609 3.12705 3.16223C3.27078 3.0578 3.45324 3.02074 3.62618 3.06061L4.77937 3.32842C4.98149 3.37502 5.19316 3.36604 5.39078 3.30203C5.58841 3.23747 5.76471 3.12069 5.90114 2.96404L6.67536 2.06909ZM3.97598 8.92153L5.92639 10.8719C6.05328 10.9988 6.25932 10.9988 6.38621 10.8719L10.3017 6.95647C10.4286 6.82958 10.4286 6.62353 10.3017 6.49665C10.1748 6.36976 9.96875 6.36976 9.84187 6.49665L6.1565 10.1826L4.43563 8.46172C4.30874 8.33483 4.10269 8.33483 3.97581 8.46172C3.84948 8.5886 3.84948 8.79465 3.97581 8.92153H3.97598Z" fill="#65B5AF"/>
</svg>
