<svg width="274" height="23" viewBox="0 0 274 23" fill="none" xmlns="http://www.w3.org/2000/svg">
<path d="M62.5625 17.0576L58.1562 5.4873H59.8438L62.6562 12.8779C62.9115 13.5238 63.151 14.2503 63.375 15.0576C63.6198 14.2451 63.8646 13.5133 64.1094 12.8623L66.9141 5.4873H68.5469L64.1953 17.0576H62.5625ZM73.2172 5.4873V17.0576H71.6469V5.4873H73.2172ZM84.5672 17.0576H77.5125V5.4873H84.5672V6.93262H79.0828V10.542H84.0281V11.9404H79.0828V15.6045H84.5672V17.0576ZM90.7766 17.0576L87.3391 5.4873H88.9719L91.0812 12.5654C91.3104 13.4561 91.4693 14.154 91.5578 14.6592C91.6724 14.1071 91.8547 13.4092 92.1047 12.5654L94.3 5.4873H95.9953L98.1672 12.5654C98.3599 13.18 98.537 13.8779 98.6984 14.6592C98.8547 13.8727 99.024 13.18 99.2062 12.5811L101.339 5.4873H102.941L99.4484 17.0576H97.9484L95.1437 7.90918L92.3156 17.0576H90.7766ZM112.57 17.0576H110.945L115.164 5.4873H116.906L121.148 17.0576H119.5L118.461 14.1748H113.602L112.57 17.0576ZM115.836 7.9873L114.078 12.8154H118L116.219 7.9873C116.125 7.71126 116.062 7.4873 116.031 7.31543C116.01 7.43001 115.945 7.65397 115.836 7.9873ZM125.858 5.4873V15.6045H130.944V17.0576H124.287V5.4873H125.858ZM135.817 5.4873V15.6045H140.903V17.0576H134.247V5.4873H135.817ZM154.978 17.2373C153.89 17.2373 152.929 16.9925 152.095 16.5029C151.267 16.0081 150.627 15.3102 150.173 14.4092C149.72 13.5081 149.494 12.4665 149.494 11.2842C149.494 9.50293 150.007 8.06022 151.033 6.95605C152.064 5.85189 153.408 5.2998 155.064 5.2998C156.371 5.2998 157.483 5.65658 158.4 6.37012C159.322 7.08366 159.89 8.03158 160.103 9.21387H158.423C158.21 8.46387 157.798 7.87533 157.189 7.44824C156.585 7.01595 155.861 6.7998 155.017 6.7998C153.851 6.7998 152.913 7.20866 152.205 8.02637C151.496 8.83887 151.142 9.9196 151.142 11.2686C151.142 12.6175 151.494 13.6982 152.197 14.5107C152.905 15.3232 153.845 15.7295 155.017 15.7295C155.861 15.7295 156.595 15.5186 157.22 15.0967C157.851 14.6748 158.272 14.1071 158.486 13.3936H160.15C159.905 14.5446 159.306 15.4743 158.353 16.1826C157.405 16.8857 156.28 17.2373 154.978 17.2373ZM173.398 8.16699C173.867 9.07324 174.102 10.1071 174.102 11.2686C174.102 12.43 173.865 13.4665 173.391 14.3779C172.922 15.2842 172.263 15.9899 171.414 16.4951C170.57 17.0003 169.607 17.2529 168.523 17.2529C167.445 17.2529 166.484 17.0003 165.641 16.4951C164.802 15.9899 164.148 15.2842 163.68 14.3779C163.216 13.4665 162.984 12.43 162.984 11.2686C162.984 10.1123 163.219 9.08105 163.688 8.1748C164.156 7.26335 164.812 6.55501 165.656 6.0498C166.505 5.53939 167.466 5.28418 168.539 5.28418C169.622 5.28418 170.586 5.53678 171.43 6.04199C172.273 6.5472 172.93 7.25553 173.398 8.16699ZM172.453 11.2686C172.453 9.9248 172.094 8.84408 171.375 8.02637C170.661 7.20866 169.716 6.7998 168.539 6.7998C167.362 6.7998 166.417 7.20866 165.703 8.02637C164.99 8.84408 164.633 9.9248 164.633 11.2686C164.633 12.6123 164.99 13.6956 165.703 14.5186C166.417 15.3363 167.362 15.7451 168.539 15.7451C169.711 15.7451 170.656 15.3337 171.375 14.5107C172.094 13.6878 172.453 12.6071 172.453 11.2686ZM179.28 5.4873V15.6045H184.366V17.0576H177.709V5.4873H179.28ZM189.239 5.4873V15.6045H194.325V17.0576H187.669V5.4873H189.239ZM204.683 17.0576H197.628V5.4873H204.683V6.93262H199.198V10.542H204.144V11.9404H199.198V15.6045H204.683V17.0576ZM213.353 17.2373C212.265 17.2373 211.304 16.9925 210.47 16.5029C209.642 16.0081 209.002 15.3102 208.548 14.4092C208.095 13.5081 207.869 12.4665 207.869 11.2842C207.869 9.50293 208.382 8.06022 209.408 6.95605C210.439 5.85189 211.783 5.2998 213.439 5.2998C214.746 5.2998 215.858 5.65658 216.775 6.37012C217.697 7.08366 218.265 8.03158 218.478 9.21387H216.798C216.585 8.46387 216.173 7.87533 215.564 7.44824C214.96 7.01595 214.236 6.7998 213.392 6.7998C212.226 6.7998 211.288 7.20866 210.58 8.02637C209.871 8.83887 209.517 9.9196 209.517 11.2686C209.517 12.6175 209.869 13.6982 210.572 14.5107C211.28 15.3232 212.22 15.7295 213.392 15.7295C214.236 15.7295 214.97 15.5186 215.595 15.0967C216.226 14.6748 216.647 14.1071 216.861 13.3936H218.525C218.28 14.5446 217.681 15.4743 216.728 16.1826C215.78 16.8857 214.655 17.2373 213.353 17.2373ZM220.289 6.93262V5.4873H228.812V6.93262H225.344V17.0576H223.773V6.93262H220.289ZM233.561 5.4873V17.0576H231.991V5.4873H233.561ZM247.583 8.16699C248.052 9.07324 248.286 10.1071 248.286 11.2686C248.286 12.43 248.049 13.4665 247.575 14.3779C247.106 15.2842 246.447 15.9899 245.598 16.4951C244.755 17.0003 243.791 17.2529 242.708 17.2529C241.63 17.2529 240.669 17.0003 239.825 16.4951C238.986 15.9899 238.333 15.2842 237.864 14.3779C237.401 13.4665 237.169 12.43 237.169 11.2686C237.169 10.1123 237.403 9.08105 237.872 8.1748C238.341 7.26335 238.997 6.55501 239.841 6.0498C240.69 5.53939 241.651 5.28418 242.723 5.28418C243.807 5.28418 244.77 5.53678 245.614 6.04199C246.458 6.5472 247.114 7.25553 247.583 8.16699ZM246.637 11.2686C246.637 9.9248 246.278 8.84408 245.559 8.02637C244.846 7.20866 243.901 6.7998 242.723 6.7998C241.546 6.7998 240.601 7.20866 239.887 8.02637C239.174 8.84408 238.817 9.9248 238.817 11.2686C238.817 12.6123 239.174 13.6956 239.887 14.5186C240.601 15.3363 241.546 15.7451 242.723 15.7451C243.895 15.7451 244.841 15.3337 245.559 14.5107C246.278 13.6878 246.637 12.6071 246.637 11.2686ZM253.464 17.0576H251.894V5.4873H253.464L259.378 14.4326V5.4873H260.948V17.0576H259.378L253.464 8.1123V17.0576ZM264.447 8.6123C264.447 7.61751 264.811 6.81543 265.541 6.20605C266.275 5.59147 267.239 5.28418 268.431 5.28418C269.535 5.28418 270.421 5.57324 271.087 6.15137C271.759 6.72428 272.127 7.51074 272.189 8.51074H270.603C270.567 7.93783 270.356 7.49251 269.97 7.1748C269.585 6.85189 269.067 6.69043 268.416 6.69043C267.692 6.69043 267.111 6.8623 266.673 7.20605C266.236 7.5446 266.017 7.99772 266.017 8.56543C266.017 9.47168 266.556 10.0524 267.634 10.3076L269.533 10.7529C271.434 11.1852 272.384 12.2139 272.384 13.8389C272.384 14.8753 272.012 15.7035 271.267 16.3232C270.528 16.943 269.541 17.2529 268.306 17.2529C267.129 17.2529 266.176 16.9639 265.447 16.3857C264.723 15.8076 264.337 15.0238 264.291 14.0342H265.884C265.9 14.5863 266.127 15.0264 266.564 15.3545C267.002 15.6774 267.582 15.8389 268.306 15.8389C269.077 15.8389 269.686 15.6722 270.134 15.3389C270.587 15.0003 270.814 14.5446 270.814 13.9717C270.814 13.0602 270.28 12.4795 269.212 12.2295L267.314 11.792C266.371 11.5785 265.658 11.2035 265.173 10.667C264.689 10.1305 264.447 9.44564 264.447 8.6123Z" fill="black"/>
<line y1="10.5576" x2="44" y2="10.5576" stroke="black"/>
</svg>
