<svg width="47" height="19" viewBox="0 0 47 19" fill="none" xmlns="http://www.w3.org/2000/svg">
<path d="M1.02119 9.45111C9.41195 9.4511 34.7267 9.4511 43.0746 9.4511C43.0889 9.40204 43.1032 9.35299 43.1032 9.30394C42.9034 9.18949 42.7036 9.07504 42.5038 8.94423C39.7925 7.26014 38.3085 4.59502 37.7519 1.19413C37.7234 1.06333 37.8518 0.899826 37.9089 0.736322C38.0373 0.834424 38.2371 0.916176 38.2799 1.06333C38.5082 1.8318 38.6224 2.64932 38.8935 3.38509C40.1208 6.75328 42.3041 8.74803 45.4577 9.35299C45.6575 9.38569 45.8002 9.69635 46 9.89256C44.8869 10.3177 43.9023 10.5629 43.0318 11.0371C40.4918 12.4269 39.022 14.814 38.4226 17.937C38.3513 18.3294 38.3941 18.9343 37.7377 18.6727C38.2514 14.814 39.4215 12.9664 43.2031 10.1215C42.8035 10.1215 42.5324 10.1215 42.2613 10.1215C34.3985 10.1215 9.55464 10.1215 1.6776 10.1051C1.37793 10.1051 0.892757 10.3177 1.02119 9.45111Z" fill="white" stroke="white" stroke-width="0.5"/>
</svg>
