<svg width="26" height="26" viewBox="0 0 26 26" fill="none" xmlns="http://www.w3.org/2000/svg">
<path d="M19.7824 0.334971V0.33665H19.7808C18.2565 0.334971 16.7321 0.91751 15.5688 2.08087C13.8632 3.78649 13.4083 6.27101 14.204 8.39143L14.2006 8.39312L13.2505 9.34327L14.152 10.2448C14.6657 9.86705 15.275 9.67736 15.8827 9.67736C16.6264 9.67736 17.3751 9.96274 17.9442 10.5318L19.6666 12.2542H19.6683H19.7808C21.3068 12.2542 22.8327 11.6734 23.9978 10.5083C25.7235 8.7826 26.1701 6.2628 25.3357 4.12557L25.3341 4.12221C25.3022 4.03995 25.2484 3.96441 25.1813 3.89726C25.047 3.76296 24.8724 3.69581 24.6961 3.69581C24.5199 3.69581 24.3453 3.76296 24.211 3.89726V3.89894L20.642 7.46628L18.6107 5.43498L22.2015 1.84414C22.4483 1.57386 22.4399 1.15584 22.1797 0.895662V0.897341L22.1747 0.893983C22.1747 0.892304 22.173 0.890626 22.173 0.890626C22.1042 0.821796 22.0236 0.769756 21.938 0.736179H21.9363C21.2446 0.46926 20.5144 0.334971 19.7824 0.334971ZM16.435 14.0421V14.0438C16.6113 14.0421 16.7876 14.1093 16.9218 14.2436L22.1026 19.426C22.3712 19.6929 22.3712 20.1277 22.1026 20.3963C21.9683 20.5306 21.7937 20.5978 21.6174 20.5978C21.4412 20.5978 21.2666 20.5306 21.1323 20.3963L15.9498 15.2139C15.6829 14.9469 15.6829 14.5122 15.9498 14.2436C16.0841 14.1093 16.2604 14.0421 16.435 14.0421ZM14.6455 15.8333V15.835C14.8201 15.8333 14.9963 15.9005 15.1306 16.0348L20.3114 21.2172C20.58 21.4842 20.58 21.919 20.3114 22.1876C20.1771 22.3218 20.0025 22.389 19.8262 22.389C19.6499 22.389 19.4753 22.3218 19.341 22.1876L14.1586 17.0051C13.8917 16.7382 13.8917 16.3034 14.1586 16.0348C14.2929 15.9005 14.4692 15.8333 14.6455 15.8333ZM3.65998 0.368922C3.48371 0.368922 3.30745 0.436072 3.17483 0.568691L0.485488 3.25971L0.483809 3.26139C0.247107 3.49809 0.216891 3.87414 0.414979 4.14609L2.60576 7.17622C2.7367 7.35585 2.94486 7.45993 3.16311 7.45993C3.19333 7.45993 3.22522 7.45826 3.25712 7.45322L4.42722 7.29038L11.3485 14.2134L11.0513 14.5105C10.2489 15.3146 10.2489 16.619 11.053 17.4231L18.8256 25.1957C19.2268 25.5986 19.7557 25.7983 20.2828 25.7983C20.8099 25.7983 21.337 25.5986 21.7382 25.1974L25.1125 21.8231C25.915 21.0173 25.915 19.7146 25.1108 18.9088L17.3399 11.1379C16.937 10.735 16.4099 10.5336 15.8828 10.5336C15.3557 10.5336 14.8286 10.735 14.4257 11.1362L14.1285 11.4334L7.20728 4.51041L7.37012 3.34199C7.40537 3.09017 7.29793 2.84003 7.09144 2.69064L4.06298 0.498189C3.94211 0.410897 3.80099 0.368922 3.65998 0.368922ZM9.25844 13.3339V13.3355L8.30661 14.2857L8.30829 14.2874C7.63344 14.0356 6.92164 13.908 6.20987 13.908C4.68556 13.908 3.15958 14.4905 1.99622 15.6539C0.273835 17.3746 -0.174403 19.8877 0.651549 22.0212L0.653229 22.0229C0.685124 22.1085 0.737164 22.1874 0.805994 22.2562C0.807673 22.2579 0.807673 22.2596 0.809352 22.2596L0.812709 22.2646H0.81103C0.94533 22.3989 1.1216 22.466 1.29618 22.466C1.46238 22.466 1.62858 22.4056 1.75951 22.2864L5.35203 18.6956L7.38165 20.7269L3.81263 24.2959C3.54572 24.5628 3.54572 24.9976 3.81263 25.2662C3.87978 25.3333 3.95533 25.3854 4.03759 25.419L4.04094 25.4206C4.73763 25.6926 5.4729 25.8269 6.20989 25.8269C7.73588 25.8269 9.26019 25.246 10.4252 24.0827C11.6171 22.8891 12.1996 21.3161 12.1694 19.7533L12.1711 19.755L10.4471 18.0292C9.41464 16.9951 9.31894 15.3802 10.16 14.2386H10.1633L9.25844 13.3339Z" fill="#65B5AF"/>
</svg>
