<svg width="38" height="24" viewBox="0 0 38 24" fill="none" xmlns="http://www.w3.org/2000/svg">
<g clip-path="url(#clip0_55_4866)">
<path d="M34.8996 23H3.09961C1.99961 23 1.09961 22.1 1.09961 21V3C1.09961 1.9 1.99961 1 3.09961 1H34.8996C35.9996 1 36.8996 1.9 36.8996 3V21C36.8996 22.1 35.9996 23 34.8996 23Z" fill="white"/>
<path d="M6.50039 14.6999L6.70039 16.5999H14.7004L14.5004 14.3999H10.7004V14.1999L14.1004 11.7999L13.9004 9.8999H5.90039L6.20039 11.9999H9.90039V12.2999L6.50039 14.6999Z" fill="#1A0826"/>
<path d="M14.7998 9.8999L15.6998 16.5999H23.6998L22.8998 9.8999H14.7998Z" fill="#AA8FFF"/>
<path d="M32.0998 12.2999C31.8998 10.7999 30.6998 9.8999 29.0998 9.8999H23.7998L24.5998 16.5999H26.9998L26.7998 15.2999H29.2998C31.3998 15.1999 32.2998 13.9999 32.0998 12.2999ZM29.0998 13.3999H26.5998L26.3998 11.7999H28.8998C29.4998 11.7999 29.7998 12.0999 29.7998 12.5999C29.8998 12.7999 29.7998 13.3999 29.0998 13.3999Z" fill="#1A0826"/>
<path d="M17.3646 9.04155C17.7807 8.59891 17.6939 7.84143 17.1708 7.34968C16.6477 6.85793 15.8863 6.81812 15.4702 7.26077C15.0541 7.70342 15.1409 8.4609 15.664 8.95265C16.1871 9.4444 16.9485 9.4842 17.3646 9.04155Z" fill="#1A0826"/>
<path opacity="0.07" d="M34.8996 1C35.9996 1 36.8996 1.9 36.8996 3V21C36.8996 22.1 35.9996 23 34.8996 23H3.09961C1.99961 23 1.09961 22.1 1.09961 21V3C1.09961 1.9 1.99961 1 3.09961 1H34.8996ZM34.8996 0H3.09961C1.39961 0 0.0996094 1.3 0.0996094 3V21C0.0996094 22.7 1.39961 24 3.09961 24H34.8996C36.5996 24 37.8996 22.7 37.8996 21V3C37.8996 1.4 36.5996 0 34.8996 0Z" fill="black"/>
</g>
<defs>
<clipPath id="clip0_55_4866">
<rect width="38" height="24" fill="white"/>
</clipPath>
</defs>
</svg>
