<svg width="114" height="66" viewBox="0 0 114 66" fill="none" xmlns="http://www.w3.org/2000/svg">
<path d="M73.785 38.874C73.8713 38.9438 73.9742 39.0011 74.0416 39.086C74.6521 39.8566 75.4503 40.1006 76.4033 39.975C76.711 39.9342 77.0303 39.991 77.3408 39.9633C77.793 39.9235 78.1842 39.9735 78.3778 40.5306C78.7063 39.9919 79.1614 39.9357 79.6806 39.9599C80.4167 39.9949 81.1553 39.9696 81.8929 39.973C81.9317 39.973 81.9705 39.9978 82.0219 40.0152C82.0578 40.2263 81.8759 40.3219 81.7677 40.4437C81.2038 41.0784 80.6312 41.7058 80.0577 42.3318C79.5239 42.9141 79.5312 42.7583 79.8665 43.4648C81.0456 45.9512 82.036 48.5055 82.6794 51.1872C83.1457 53.1301 83.4024 55.0953 83.2811 57.0965C83.1952 58.5139 82.8915 59.8808 82.2413 61.1536C80.9554 63.67 78.8324 65.0375 76.1156 65.5688C73.6772 66.0458 71.2612 65.7852 68.868 65.2631C65.0894 64.4387 61.5535 62.9635 58.1403 61.1725C58.1015 61.1521 58.0694 61.1196 58.0311 61.09C58.1184 60.8843 58.331 60.8425 58.4955 60.7431C59.1831 60.3267 59.891 59.9414 60.5607 59.4984C60.929 59.2548 61.2487 59.216 61.6738 59.349C63.4721 59.9114 65.3063 60.2598 67.2056 60.2292C71.5519 60.1584 74.7904 57.6734 75.9511 53.4858C76.5732 51.2425 76.4955 48.9798 76.1233 46.7111C76.1136 46.6509 76.0593 46.598 76.0132 46.5199C75.7075 46.6868 75.4954 46.9498 75.2557 47.1755C70.757 51.4167 65.9575 55.2749 60.7188 58.5706C56.833 61.0153 52.7818 63.1285 48.4034 64.5609C45.5429 65.497 42.6285 66.1239 39.5914 65.9793C38.5141 65.9279 37.4558 65.7561 36.4407 65.3961C33.2027 64.2485 31.4102 61.8916 30.8483 58.5629C30.4358 56.1207 30.7396 53.7105 31.3127 51.3255C31.9775 48.5562 33.0227 45.9265 34.2518 43.3649C34.5361 42.7719 34.6235 42.8888 34.1149 42.341C33.5676 41.7514 33.0265 41.156 32.4879 40.5587C32.3457 40.401 32.2215 40.2263 32.0075 39.9565C33.1299 39.9565 34.1266 39.9551 35.1233 39.9575C35.4154 39.958 35.4673 40.287 35.7002 40.3865C35.8638 40.3845 35.8851 40.2292 35.9448 40.1244C40.3838 32.3305 46.0907 25.5482 52.5338 19.3541C53.1297 18.7811 53.7386 18.2216 54.3491 17.6636C54.7329 17.3127 54.7402 17.3176 55.1526 17.6723C55.5083 17.9785 55.865 18.2832 56.2124 18.5986C56.5535 18.9082 56.5506 18.9155 56.1969 19.2503C55.9048 19.5264 55.6059 19.7962 55.3113 20.0699C50.8092 24.2507 46.6953 28.7678 43.3447 33.9405C41.493 36.7991 39.9281 39.8008 38.8354 43.0373C38.715 43.3945 38.7359 43.6332 39.0309 43.919C43.1463 47.9082 47.4654 51.6467 52.2902 54.7683C53.5096 55.5573 54.7615 56.2915 56.0435 56.9732C56.1217 57.015 56.2114 57.0416 56.259 57.2047C55.4045 57.6608 54.4864 58.018 53.5683 58.3765C53.2985 58.4818 53.1442 58.2975 52.9671 58.1854C51.4376 57.2178 49.9445 56.1959 48.4834 55.1274C44.997 52.5779 41.7017 49.8009 38.5699 46.828C38.4244 46.6897 38.2783 46.5514 38.1279 46.4195C38.0988 46.3937 38.0454 46.3952 37.9644 46.3738C37.6383 47.9785 37.4772 49.5917 37.6053 51.2246C37.7086 52.5439 37.9498 53.8391 38.4976 55.0536C39.9228 58.212 42.3539 59.9958 45.8112 60.3651C48.431 60.6451 50.9189 60.0589 53.3592 59.2005C56.2828 58.1723 58.9875 56.7029 61.5855 55.0313C66.5131 51.8602 70.9172 48.0499 75.0951 43.9627C75.3411 43.722 75.3644 43.5177 75.263 43.2009C74.8064 41.7742 74.2144 40.403 73.6214 39.0312C73.5865 38.8871 73.651 38.8439 73.785 38.874Z" fill="#FF69B3"/>
<path d="M27.6506 34.7978C27.5637 34.6362 27.5302 34.5493 27.4763 34.4775C24.083 29.9648 21.0925 25.2128 18.9215 19.9805C17.8666 17.4373 17.0509 14.8213 16.6875 12.0812C16.4449 10.2528 16.4226 8.42831 16.8864 6.62612C17.7905 3.11537 20.0648 1.03369 23.5794 0.283986C25.9178 -0.214842 28.2498 0.00400483 30.563 0.473719C34.7812 1.33065 38.6868 3.01541 42.4562 5.04224C47.8327 7.93283 52.739 11.4989 57.3648 15.4633C60.9837 18.565 64.3727 21.901 67.5355 25.4666C67.667 25.615 67.7936 25.7674 67.9212 25.9164C67.813 26.1236 67.6364 26.0372 67.4986 26.0387C66.761 26.0479 66.023 26.0236 65.2869 26.0508C64.8953 26.0653 64.6318 25.9387 64.3673 25.6457C60.63 21.5061 56.5525 17.7303 52.1456 14.3128C48.9075 11.8017 45.4973 9.5613 41.7497 7.86975C39.5836 6.89198 37.35 6.12584 34.9786 5.84051C33.3021 5.63865 31.6271 5.65661 30.0054 6.19523C26.9387 7.21375 25.0705 9.38855 24.1573 12.4223C23.5483 14.4443 23.527 16.5158 23.8059 18.5951C24.3432 22.5969 25.8726 26.243 27.8267 29.7338C28.1755 30.3569 28.5565 30.962 28.92 31.5768C29.0189 31.7442 29.1616 31.8917 29.0384 32.1246C28.5905 32.9675 28.1576 33.8171 27.6506 34.7978Z" fill="#FF69B3"/>
<path d="M88.103 26.0424C88.5984 24.8065 89.0361 23.6638 89.3807 22.488C90.1027 20.025 90.4962 17.5221 90.2565 14.9503C90.0236 12.4523 89.1778 10.2148 87.3528 8.42235C85.9476 7.04232 84.2429 6.28825 82.3005 6.02962C79.7064 5.68413 77.2307 6.21789 74.803 7.04814C71.4398 8.19817 68.3765 9.93727 65.4359 11.9069C63.5595 13.1636 61.7593 14.5228 60.0134 15.9543C59.8586 16.0814 59.6989 16.2027 59.4917 16.3662C58.907 15.8596 58.3237 15.3545 57.756 14.8625C57.7293 14.7033 57.8254 14.6388 57.9089 14.5699C63.3353 10.0814 69.1102 6.13443 75.5668 3.25498C78.2036 2.07924 80.92 1.13351 83.7659 0.60508C86.0437 0.182436 88.3311 0.028612 90.62 0.53569C94.2069 1.33052 96.6263 3.89696 97.2425 7.50961C97.6763 10.0508 97.3721 12.5411 96.7689 15.0085C95.8446 18.7876 94.2491 22.2963 92.3896 25.695C92.2776 25.8998 92.1659 26.0517 91.8879 26.0487C90.6607 26.0352 89.4326 26.0424 88.103 26.0424Z" fill="#FF69B3"/>
<path d="M59.267 27.2302C59.5542 27.2302 59.7765 27.2302 59.9987 27.2302C67.9984 27.2302 75.9976 27.2302 83.9973 27.2302C84.1089 27.2302 84.221 27.2272 84.3326 27.2306C85.0644 27.2544 85.3783 27.7387 85.0484 28.4049C84.434 29.6437 83.7809 30.8632 83.1569 32.0966C83.0341 32.3393 82.8255 32.448 82.611 32.564C81.2766 33.2846 79.9412 34.0032 78.6063 34.7228C78.4117 34.8276 78.2195 34.9373 77.9667 35.078C79.3065 36.2872 80.6132 37.4669 81.92 38.6465C81.8191 38.8503 81.6405 38.76 81.5037 38.7605C79.6491 38.7673 77.7945 38.7557 75.9399 38.7736C75.5958 38.777 75.3556 38.663 75.1121 38.4412C73.7078 37.1631 72.2865 35.9039 70.8871 34.6204C70.5872 34.3453 70.2912 34.2157 69.8763 34.2225C68.3798 34.2463 66.8824 34.2341 65.3849 34.2298C65.1665 34.2293 64.9428 34.2711 64.6405 34.1599C65.0884 33.663 65.562 33.2273 65.925 32.7139C66.4694 31.9438 67.1502 31.7283 68.0814 31.7511C70.7614 31.8171 73.4438 31.7638 76.1248 31.7924C76.6013 31.7973 76.857 31.6546 77.0302 31.2217C77.1865 30.8306 77.4252 30.4726 77.6101 30.0917C77.7678 29.7666 77.7231 29.6981 77.382 29.6734C77.2709 29.6651 77.1588 29.6719 77.0467 29.6719C73.4268 29.6719 69.8069 29.6812 66.187 29.6608C65.7197 29.6583 65.4863 29.801 65.2733 30.2212C63.9132 32.9075 62.5103 35.572 61.1468 38.2568C60.9454 38.6538 60.7198 38.7853 60.2777 38.7785C58.4459 38.7503 56.6132 38.7537 54.7814 38.7756C54.3175 38.7809 53.9686 38.6222 53.5979 38.2626C54.6756 37.9996 55.1293 37.1942 55.569 36.3134C56.784 33.879 58.0398 31.4644 59.3218 29.0644C59.5897 28.5622 59.6595 28.1332 59.4024 27.6397C59.3538 27.5451 59.3335 27.434 59.267 27.2302Z" fill="white"/>
<path d="M92.9292 31.7624C96.6937 31.7624 100.372 31.7624 104.041 31.7624C104.134 32.006 103.939 32.0648 103.845 32.1608C103.283 32.7368 102.697 33.2885 102.149 33.8771C101.895 34.1498 101.623 34.228 101.265 34.227C98.2479 34.2163 95.2302 34.2289 92.213 34.2115C91.8064 34.209 91.5492 34.2954 91.3886 34.6938C91.1751 35.2222 90.8252 35.6914 90.6127 36.3189C96.9223 36.3189 103.161 36.3189 109.572 36.3189C108.723 37.1709 107.989 37.9032 107.261 38.6417C107.113 38.7912 106.937 38.7659 106.761 38.7669C106.269 38.7688 105.777 38.7679 105.286 38.7679C97.9548 38.7679 90.6233 38.7645 83.2923 38.7752C82.8168 38.7756 82.416 38.6873 82.0947 38.3215C82.1175 38.2899 82.1326 38.2438 82.1607 38.2336C82.9599 37.9478 83.4583 37.4005 83.8397 36.6294C85.0955 34.0901 86.4042 31.5761 87.7323 29.0742C87.9987 28.5725 88.0792 28.1411 87.8157 27.6452C87.7653 27.5505 87.741 27.4419 87.6833 27.2793C96.4472 27.2793 105.163 27.2793 113.888 27.2793C113.918 27.4132 113.783 27.4389 113.704 27.4923C112.205 28.5045 110.7 29.507 109.207 30.528C108.926 30.7201 108.746 30.7556 108.484 30.479C107.95 29.9161 107.25 29.6793 106.486 29.6778C102.463 29.6701 98.4396 29.674 94.416 29.6735C94.217 29.6735 94.0113 29.641 93.8948 29.8715C93.5877 30.4814 93.2737 31.0894 92.9292 31.7624Z" fill="white"/>
<path d="M5.66767 27.2588C8.12542 27.2588 10.5904 27.2588 13.138 27.2588C11.5799 30.2731 10.0499 33.2331 8.46363 36.3018C14.731 36.3018 20.8921 36.3018 27.1202 36.3018C27.0333 36.572 26.8989 36.6875 26.7815 36.8083C25.5568 38.0646 24.0816 38.7644 22.311 38.7653C15.2294 38.7702 8.14774 38.7639 1.0666 38.7755C0.625515 38.7765 0.296032 38.6265 0.0204147 38.3582C-0.0169489 38.2912 -0.00142105 38.2568 0.0538967 38.2369C0.848722 37.9491 1.35532 37.4115 1.73817 36.639C2.99495 34.1017 4.30898 31.5925 5.63419 29.0901C5.89525 28.5971 6.01462 28.1628 5.73512 27.6606C5.67252 27.547 5.60265 27.4238 5.66767 27.2588Z" fill="white"/>
<path d="M41.5464 38.6614C41.8681 37.9306 42.2932 37.2309 42.6823 36.5127C42.8032 36.2895 43.0118 36.324 43.2103 36.324C44.2603 36.324 45.3114 36.2944 46.3595 36.3366C46.8525 36.3565 47.1063 36.1998 47.3305 35.7572C48.6906 33.0724 50.0924 30.4084 51.4555 27.725C51.6432 27.3553 51.8436 27.2145 52.261 27.2199C54.0923 27.2432 55.924 27.2286 57.7558 27.2325C57.9019 27.233 58.0615 27.1796 58.1945 27.2907C58.2532 27.4732 58.1193 27.5921 58.0523 27.7226C56.7131 30.3181 55.3772 32.9156 54.0204 35.5025C53.1179 37.2231 51.7238 38.3188 49.7945 38.6866C49.5329 38.7366 49.2626 38.7604 48.9967 38.7613C46.6288 38.7677 44.2613 38.7667 41.8933 38.7652C41.79 38.7652 41.6735 38.8002 41.5464 38.6614Z" fill="white"/>
<path d="M31.9615 27.2583C34.4503 27.2583 36.9201 27.2583 39.4769 27.2583C37.9066 30.2872 36.3655 33.2593 34.7822 36.3129C35.6532 36.3129 36.4039 36.3129 37.2069 36.3129C37.105 36.7394 36.8362 37.0136 36.6576 37.3319C36.4611 37.6818 36.2287 38.0122 36.0438 38.3679C35.8943 38.6552 35.7095 38.7784 35.3679 38.776C33.1343 38.76 30.9002 38.7682 28.6667 38.7663C28.4721 38.7663 28.2654 38.8119 28.1261 38.5984C27.9315 38.3005 27.6234 38.0695 27.5186 37.7279C27.4798 37.6012 27.6423 37.4081 27.7234 37.2504C29.1112 34.5544 30.4829 31.8497 31.9032 29.1711C32.2017 28.6078 32.3016 28.1162 31.993 27.5577C31.9615 27.5004 31.9479 27.4325 31.9319 27.368C31.9265 27.349 31.9421 27.3253 31.9615 27.2583Z" fill="white"/>
</svg>
